<?xml version="1.0" encoding="UTF-8"?>
<svg id="Layer_1" data-name="Layer 1" xmlns="http://www.w3.org/2000/svg" width="389.461" height="198.012" xmlns:xlink="http://www.w3.org/1999/xlink" viewBox="0 0 389.461 198.012">
  <defs>
    <clipPath id="clippath">
      <path d="M0,82.452v103.343h88.546v-103.343H0ZM41.678,133.496c-.302-4.759,3.311-8.862,8.07-9.164,4.759-.302,8.862,3.311,9.164,8.07.302,4.759-3.311,8.862-8.07,9.164s-8.862-3.311-9.164-8.07Z" fill="none" stroke-width="0"/>
    </clipPath>
    <clipPath id="clippath-1">
      <rect x="233.477" y="125.478" width="136.238" height="65.074" fill="none" stroke-width="0"/>
    </clipPath>
    <clipPath id="clippath-2">
      <rect x="360.129" y="131.23" width="9.586" height="10.037" fill="none" stroke-width="0"/>
    </clipPath>
    <clipPath id="clippath-3">
      <rect x="233.477" y="125.478" width="136.238" height="65.074" fill="none" stroke-width="0"/>
    </clipPath>
    <clipPath id="clippath-4">
      <rect x="233.477" y="125.478" width="136.238" height="66.766" fill="none" stroke-width="0"/>
    </clipPath>
    <clipPath id="clippath-5">
      <rect x="233.477" y="125.478" width="136.238" height="65.074" fill="none" stroke-width="0"/>
    </clipPath>
    <clipPath id="clippath-6">
      <rect x="233.477" y="128.862" width="19.962" height="38.909" fill="none" stroke-width="0"/>
    </clipPath>
  </defs>
  <rect x=".143" width="389.318" height="198.012" fill="#18234e" stroke-width="0"/>
  <g>
    <g>
      <g id="Logo">
        <g>
          <ellipse cx="81.583" cy="34.291" rx="15.755" ry="15.224" fill="#fff" stroke-width="0"/>
          <g>
            <path d="M49.917,39.924l-.579.156c.116-.004.23-.008.347-.012.081-.049.158-.097.233-.145Z" fill="#0f73b0" stroke-width="0"/>
            <path d="M15.528,66.634c-.032-.431-.044-.885-.062-1.191-.243,1.013-.409,1.566.011,2.252.105-.222.097-.629.05-1.061Z" fill="#0f73b0" stroke-width="0"/>
            <path d="M50.877,39.984c.852-.084,1.591-.219,2.029-.459-.768.108-1.443.273-2.029.459Z" fill="#0f73b0" stroke-width="0"/>
            <polygon points="185.651 130.993 185.65 131.003 185.651 130.997 185.651 130.993" fill="#0f73b0" stroke-width="0"/>
            <path d="M38.187,158.489c-.015.013-.033.039-.049.059.047.018.094.037.142.055h0s0,0,0,0c-.05-.06-.085-.102-.093-.114Z" fill="#0f73b0" stroke-width="0"/>
            <path d="M36.129,157.567c-.073-.006-.152,0-.234.017,0,0,0,0,0,0h0c.084.04.169.077.253.116h0s-.019-.134-.019-.134Z" fill="#0f73b0" stroke-width="0"/>
            <path d="M36.261,157.753s0,0,0,0h0c.067.031.134.062.201.093.03-.018.056-.036.083-.053.018-.011.038-.023.053-.034-.112-.001-.226-.002-.338-.005Z" fill="#0f73b0" stroke-width="0"/>
            <path d="M20.767,128.781c-.015,0-.022.033-.012.129l.077-.068h0c-.026-.031-.05-.062-.065-.062Z" fill="#0f73b0" stroke-width="0"/>
            <path d="M95.16,31.156h0c.009.04.021.079.03.12h0s0,0,0,0c.012-.02.023-.036.036-.057-.023-.022-.043-.042-.065-.063,0,0,0,0,0,0Z" fill="#0f73b0" stroke-width="0"/>
            <polygon points="92.125 23.983 92.133 23.967 92.114 23.962 92.114 23.962 92.114 23.962 92.125 23.983 92.125 23.983 92.125 23.983" fill="#0f73b0" stroke-width="0"/>
            <path d="M88.98,21.649s0,0,0,0c.204.027.312.083.378.031.034-.027.061-.075.076-.19-.369-.342-.247.195-.558-.146-.038.01-.041.033-.027.062.029.057.127.137.157.19.015.026.012.046-.025.053h0Z" fill="#0f73b0" stroke-width="0"/>
            <path d="M88.98,21.649c-.049-.007-.103-.011-.163-.01.087.016.132.015.163.01,0,0,0,0,0,0h0Z" fill="#0f73b0" stroke-width="0"/>
            <path d="M200.302,97.387c-.107-.867-.612-1.614-1.336-2.047-.047.037-.162.036-.385-.01.335.128.649.324.91.582-.115-.018-.317-.173-.607-.336-.318-.18-.605-.262-1.234-.427-.559-.168-1.135-.381-1.618-.64-.479-.264-.863-.536-1.077-.663-.588-.674-.906-1.466-1.102-2.191-.2-.734-.318-1.446-.424-2.151-.078.157-.394-.495-.278.186.116.502.253,1.044.366,1.378-.235-.719-.32-1.129-.366-1.378-.238-1.034-.438-1.911-.305-.543-.313-2.381-.756-4.654-1.901-6.641-1.106-1.987-2.913-3.535-4.968-4.532-2.055-1.003-4.381-1.377-6.641-1.183-1.13.096-2.254.3-3.334.653-.125.036-.245.084-.368.126-.276.14-.556.247-.825.313-.43.182-.855.377-1.279.575-.002.016,0,.024-.004.045l-.034-.028c-.208.097-.415.194-.624.288l-.846.378-.042-.154-.075.177-.181-.891.12-.357.211-.629-.079-.066c.032-.016.079-.041.123-.064l.068-.202.159-.47c.064-.141.075-.355.207-.382.01-.008.019-.016.024-.02.882.105.33-.07-.13-.222-.008-.002-.015-.003-.023-.006h0c.008.002.015.003.023.006,0,0,0,0,0,0,.74.208,1.339.283,1.556.229.201-.034.333-.113.436-.191.203-.167.292-.342.545-.564.274-.145.53-.345.744-.617.24-.358.499-.712.729-1.083.285-1.02-.141-.306-.187-.41.901-2.24,1.443-4.588,1.602-6.865.146-2.277-.127-4.477-.778-6.336-.233-1.257.429.222-.061-1.443.099.575.025.585-.081.381-.076-.172-.438-.91-.664-1.635.159-.205.331-.43.481-.659.037-.051.081-.126.097-.165l.043-.095c.028-.064.05-.129.073-.193.084-.258.115-.511.109-.71-.019-.4-.108-.564-.153-.273.081-.307.018-.95-.039-1.55-.088-.617-.25-1.272-.387-1.858-.176-.575-.322-1.084-.374-1.423-.041-.176-.048-.3-.015-.365-.188-.455-.389-.903-.61-1.341-.039.054.002.24.066.457-.978-2.102-2.126-3.645-3.548-4.897-.17-.273-.758-.845-1.553-1.579-.828-.698-1.893-1.531-3.075-2.236-2.326-1.469-5.02-2.445-5.964-2.967,0,0-.001,0-.002,0,.632.336.582.39.226.279-.183-.046-.449-.113-.753-.189-.127-.029-.264-.06-.4-.091,0-.009,0-.021,0-.029-.238-.945-.45-1.79-.651-2.589-.222-.785-.431-1.526-.643-2.275-.285-.723-.557-1.467-.891-2.255-.415-.745-.776-1.605-1.373-2.461.039.144.055.188-.043-.064.017.025.029.042.043.064-.062-.224-.188-.699-.012-.674-.617-.839-1.642-1.623-2.402-2.116-.777-.481-1.378-.602-1.219-.241-.419-.394-.727-.707-.979-.975-.256-.263-.484-.447-.689-.644-.209-.192-.412-.374-.665-.578-.246-.214-.558-.427-.999-.652.604.507.82.801.878.864.052.07-.087-.051-.311-.238-.462-.354-1.325-.896-1.592-.774-1.728-.95-.474-.558-1.222-1.106-.323-.104-1.1-.322-1.204-.215.167.158.427.373.92.686-.78-.43-.983-.626-.92-.686-.488-.394.171-.442.792-.388.625.031,1.262.058.693-.491-.207-.17-.576-.513-1.086-.799-.515-.294-1.114-.636-1.692-.966-.295-.129-.586-.257-.861-.377-.693-.191-1.398-.347-2.112-.468-.655.55-.484,1.92.508,2.68-.194.199-1.71-.693-2.566-.883-1.211-.347-2.186-.378-3.081-.197-.445.07-.879.138-1.325.208-.444.096-.903.165-1.419.172l1.54-.439c-.174-.044-1.023.06-1.88.197-.856.152-1.695.472-1.912.588-.132-.143,1.39-1.179.4-1.174-.477.092-.947.189-1.404.313-.46.141-.907.291-1.334.447-.854.312-1.627.644-2.268.961-1.283.634-2.039,1.205-1.856,1.417l5.731-2.061c.314.351-4.056,1.512-3.686,1.936l-5.439,1.289c.679-.194,2.732-.863,1.853-.869-2.314.637-1.221.248-2.82.47,1.419-.686,3.471-1.814,5.273-2.863l-4.652,1.256c-1.324.891-2.3,1.713-2.736,2.059-2.115.451-1.615-.61-1.163-.911-4.117,1.047-3.73,2.303-7.901,3.278l1.604-.223c-.956.34-4.552,1.107-4.129,1.166-.881-.013-1.779-.357-.903-.747l-3.45,1.788c.516-.229-.022-.831.175-1.016-1.48.364-2.295,1.469-1.333,1.336-3.008.26-2.222.345-4.711.374-.456.149-.327.347-.016.483-.506-.017-1.011-.036-1.521-.038-.043-.152-.146-.295-.262-.433l-.865.234.199.382c-.265.113-.328.328-.646.24h0s0,0,0,0c0,.001.002.002.003.004.099.15.206.274.317.389.418.445.894.706,1.279,1.071l.014.836.137.002-.075.055-.211.155c.099.079.182.126.154.153-.003.002-.007,0-.01.002-.027.015-.066.004-.12-.021,0,0,0,0,0,0,0,0,0,0,0,0,.035.077.072.147.114.179-.036.014-.074.017-.112.018-.007,0-.014.004-.021.003-.139-.005-.296-.08-.458-.154.041-.083.083-.166.123-.246h0c-.122-.065-.237-.103-.323-.08h0s0,0,0,0c.023.09.053.178.074.269.042.019.081.037.127.057l-.042.077h0c.239.27.52.601.698.428.025-.025.049-.06.069-.107l-.118.489c.415.493.341.406.617,1.064-.028.011-.056.008-.083,0h0c-.081-.024-.156-.097-.214-.003h0s0,0,0,0c.199.232.106.541.005.789-.108.25-.252.442-.087.5.06.394.277.174.355.433-.018-.007-.045-.018-.068-.017-.023,0-.043.012-.048.048,0,0,0,0,0,0h0s0,0,0,0l.22.32c-.069.085-.118-.121-.189-.09-.012.005-.024.017-.038.037,0,0,0,0,0,0-.013.021-.027.05-.043.092.126.548.152.905.012,1.323-.011.033-.015.064-.029.098h0c-.028.324.079.304.188.247.069-.036.138-.085.175-.076.032.008.041.06.005.206-.041.009-.084.018-.127.028-.032.007-.063.019-.095.03-.088.029-.174.069-.245.153-.044.052-.082.118-.113.204.078.221.232.235.224.584l-.279-.104h0s0,0,0,0c-.067.299-.084.552-.304.48.031.272-.053.427-.145.53-.006.123.034.178.1.191.003,0,.008-.001.011-.001.201.024.617-.313.73-.37-.331.32-.388.617-.675.762-.042.021-.075.049-.13.063l.075-.41h0c-.481.493-.211.772-.357.917-.049.048-.144.082-.329.104.155-.252.169-.628-.057-.544h0s0,0,0,0l-.052.437c-.081.007.014-.166-.072-.125-.012.006-.016.002-.037.018.005.133.029.42.066.565l-.014-.014h0s0,0,0,0c-.089.208-.183.415-.294.612.011-.067-.047-.093-.113-.006h0s-.14.504-.14.504c.021-.17-.142-.086-.303.073h0c-.362.423.098.73-.15.95-.035.031-.085.061-.154.089.051-.054.029-.086.08-.141h0s0,0,0,0l-.122.056-.144.066h0c.23.215.003.534-.235.844-.257.292-.516.582-.312.825-.056.012-.1.02-.134.023-.236.021.027-.183.128-.665l-.246.097-.16.063c.093-.131.222-.195.295-.359-.138.046-.247.117-.334.202-.261.257-.326.646-.406.878-.185.054-.202-.33-.439-.133-.034.028-.072.068-.116.123-.52.606.416.251.098.619l-.473-.026h0c-.135.246-.312.39-.499.505-.093.057-.186.111-.283.156-.171.079-.343.152-.503.249-.08.09-.112.146-.118.19-.204.054-.373.189-.527.341-.151.149-.288.315-.431.438-.099.085-.201.15-.312.173.058-.1-.308-.085-.386-.137h0l-.598.492c.269-.216.179-.381.159-.572-.019.011-.026.023-.043.034-.152.101-.225.214-.337.292-.004.003-.007.008-.012.011.062-.101.123-.202-.019-.23-.002.002-.004.004-.006.006-.187.207-.395.373-.602.556h0s.014-.003.02-.002c.055.009.13-.003.197-.018-.182.065-.546.316-.857.26.002-.077.071-.172.071-.249.142.061.23.038.291-.021s.095-.154.127-.239c-.426.176-.214.042-.342-.024-.018-.009-.043-.018-.078-.023-.343.125-.418.413-.28.533-.429.05-.57.021-.948.311l.021-.267h0l-.367.171.242-.378c-.147-.002-.229.019-.287.048-.169.083-.069.26-.213.362-.065.046-.18.076-.395.074l-.04-.221c-.075.033-.135.081-.188.133s-.097.105-.141.148c-.089.085-.175.125-.318.01-.037.022-.056.043-.062.062-.03.095.264.153.199.227-.026.029-.11.061-.295.099-.145-.09-.434-.143-.651-.186,0,0,0,0,0,0h0c-.193.094.074.208.257.221-1,.088-.675-.713-1.619-.404h0s0,0,0,0c.341.163-.291.451.528.413-.049.021-.098.031-.147.034-.341.02-.669-.329-1.029-.131l.273-.273h0c-.143-.012-.31.084-.391.115l.044-.219c-.524.373-.893-.233-1.242.216.017-.024.021-.038.03-.057.026-.051.035-.088.016-.105-.013-.011-.034-.017-.062-.018-.052-.003-.125.008-.201.017-.045.005-.091.009-.136.01-.079,0-.151-.013-.195-.059.33-.167.806.015,1.068-.037.091-.018.158-.064.181-.164-.176-.112-.358.029-.525-.1.042-.012.092-.031.14-.049.073-.027.127-.056.175-.089.018-.013.049-.024.059-.037h0c-.572-.292-.968.086-1.361.126h0s0,0,0,0l.666.01c-.026.089-.058.135-.095.157-.111.068-.265-.073-.44.12-.298-.231-.605-.027-.848-.207.07.019.083-.015.153.004-.718-.168-.755-.779-1.014-.874-.091-.05-.227-.079-.354-.084-.212-.009-.4.048-.32.179-.031.003-.04.008-.033.016.052.054.902.229.439.511-.213-.675-.901-.046-1.596-.776.109-.005.157-.031.176-.067.036-.072-.05-.186-.029-.252.003-.008.014-.013.02-.02.02-.02.052-.034.122-.033-.399-.131-.447-.063-.686,0l-.042-.208c-.316.053-.396.112-.478.138-.008.002-.017.005-.025.007-.088.02-.203-.003-.617-.119.004,0,.005-.001.009-.001.032.001.059,0,.074-.008.104-.053-.137-.292-.07-.358.011-.011.031-.017.062-.017h0s0,0,0,0c-.197-.126-.421-.194-.626-.193l.04-.005h0s0,0,0,0c-.286-.156-.421-.276-.518-.381-.032-.035-.06-.068-.088-.101-.112-.13-.223-.244-.599-.392h0v.128c-.494-.215-.957-.58-1.392-.988s-.841-.859-1.221-1.245l.175.355c-.031-.123-.59-.475-.674-.843.051.048.16.112.189.17h0s0,0,0,0c.086-.079.141-.286.006-.504l-.179.021-.024.003.055-.167c-.098-.153-.136-.113-.17-.058-.012.019-.024.04-.038.055-.031.035-.072.037-.152-.089.147-.241-.067-.603-.295-.974-.195-.39-.398-.796-.272-1.04h0c-.396-.067.122.504-.03.576-.022.01-.057.01-.111-.003-.006-.133.03-.212-.059-.453l-.141.157-.016.018c-.237-.556-.275-.99-.376-1.373-.104-.384-.169-.755-.327-1.26l.057.029h0s0,0,0,0c-.003-.089-.011-.166-.025-.235-.009-.046-.023-.084-.037-.123-.006-.017-.01-.037-.017-.053-.02-.045-.045-.083-.073-.119-.004-.005-.007-.01-.01-.015-.031-.038-.069-.072-.11-.102h0c-.019-.014-.035-.031-.057-.044.088-.098.184.157.249-.005-.649-.559.166-1.348-.22-1.691.201,0,.388-.167.567-.322-.014-.219-.029-.437-.035-.657-1.25.557-2.482,1.148-3.695,1.771-.013.207-.073.386-.169.545l-.857.231c-2.984,1.146-5.024,2.246-7.331,3.272l-4.617.879-.137.256-.925-.308c-.535.269-.869.467-1,.449-.116-.019.009-.125.212-.261-.47.152-.891.313-1.102.427.059.055.126.107.32.119-.539.075-.552.006-.32-.119-.187-.168.167-.503.684-.874l-1.675.452c-1.281.617-2.017,1.107-.595.99l1.818-.265c-.818.148-1.403.231-1.818.265l-2.72.396c-2.962,1.334-2.452,1.087-6.124,2.469-.255-.125.71-.544-.003-.496-1.298.655-3.022.931-4.478,1.127-1.425.21-2.539.403-2.742.732-1.96.997-.658.789-1.847,1.47.035-.075.09-.255-.261-.066l-1.22,1.123c-.644.202,1.166-.954-.519-.204-.601.506-1.14.96-1.641,1.382-.464.457-.893.88-1.31,1.29-.433.39-.774.85-1.192,1.255-.424.401-.811.855-1.243,1.341-.566.73-.722,1.061-.691,1.172.024.105.207-.028.409-.165.442-.246.825-.603-.067.613-.25.099-.506.181-.839.442-.167.13-.352.305-.566.549-.186.259-.393.592-.629,1.02-.292,1.003.001.99-.506,2.622l-.409-.268c-.315.743-.419,1.47-.611,1.959-.182.493-.306.798-.479.766-.024.677-.088,1.232-.173,1.704-.069.474-.109.873-.186,1.213.012,1.236.299.784.608.003.263-.793.735-1.882.876-2.128-.842,2.202-.572,3.83-1.138,5.184-.038-.697-.111-1.399-.131-2.104-.153,1.118-.203,1.967-.125,2.61.092.644.212,1.095.31,1.468.19.752.411,1.157.113,2.313-.128-.775-.409-1.599-.552-2.138-.104-.372-.21-.591-.293-.532.097.496.206.992.34,1.488l.661,2.446c.157.327.308.626.421.828l.185.126c.066.273-.025.162-.185-.126l-.037-.024,1.109,3.887c-.16-.484-.288-.483-.124.196l.983,2.724c.083.197.185.469.325.897l-.325-.897c-.265-.634-.271-.233-.143.566l.707,2.619c.658,1.533,1.304,1.425,1.512,3.686-.098-.409-.173-.459-.273-.872l.173,1.488c1.064.041,2.341,8.419,3.407,8.465.144,2.147-.199.205-1.361-2.295l.294,2.249c-.272-.872-.393-1.633-.74-2.552.342,2.963,1.577,5.509,2.244,6.986.112.858-.504.032-.371.937l.422,1.561c.032.101.057.172.087.263.044.614.079,1.23.14,1.839.326.295.62.54.841.698l-.469-1.133.041-.049c.105.117.15-.019.179-.213l.054-.064c-.009-.023-.027-.044-.037-.066.05-.464.058-1.033.447.21l-.003,2.044c.221.563.406,1.101.577,1.629-.009.647.017,1.224.275,1.635l.188-.067c.31,1.168.544,2.285.779,3.402-.114.112-.234.22-.345.334.183.033.351.07.453.166.025.117.05.234.075.352-.129.142-.277.29-.206.455l-.703.294c.097.059.14.251.245.196.055-.062.115-.126.143-.173-.06.103-.105.153-.143.173-.113.128-.203.245.067.19-.879.313-1.339,1.05-1.829,1.727-.372.491-.644,1.039-.996,1.534-.01.014-.018.029-.029.043-.121.167-.253.328-.401.478-.009.027-.007.047,0,.062.024.045.108.043.169.041-.029.009-.046.019-.068.028-.271.12.045.305,0,.452l-.139.043-.445.139h0c.015.212.197.15.263.2-.296.775-.983,1.356-1.054,2.066-.169.104-.243-.047-.339-.027-.027.006-.059.036-.092.078-.006.008-.01.005-.017.014h0s0,0,0,0c.06-.021.1-.022.133-.017.005,0,.015-.004.019-.002.102.029.066.187.019.349-.048.223-.106.46.071.397-.127.025-.217.095-.289.182-.108.13-.176.297-.269.401-.092.104-.208.144-.413.022h0s0,0,0,0c-.112.237.031.32.146.314.013,0,.02-.008.032-.011.023-.005.048-.009.063-.021-.153.368-.264.674-.184,1.037-.216.138-.277,1.405-.66,1.878-.055.068-.116.119-.185.149h0s0,0,0,0c.354-.169.149.054.223.307l.311-.144-.152.497c0,.094-.015.12-.034.123-.003,0-.005.006-.008.006-.016.041-.053.029-.1.031-.008,0-.017.006-.025.008-.017.003-.035.004-.054.017-.028.018-.056.048-.085.1-.067.349.075.393.185.609l.023-.023.023-.023-.009.24c-.004.022-.01.028-.017.023-.037-.026-.115-.33-.226-.326-.014,0-.029.016-.044.027-.009.007-.017.005-.027.017-.025.03-.051.077-.078.146.071.022.372.412.16.535.056-.289-.134-.282-.228-.186h0s-.064.33-.064.33l-.015.079h0s.286-.07.286-.07l.07-.017c-.237,1.156-.506,2.372-.544,3.645-.024-.002-.039.011-.056.021-.092.049-.112.228-.138.408-.008.16-.025.314-.127.358-.034.015-.077.017-.133.003l.039-.05c-.021-.113-.071-.127-.122-.094-.026.017-.052.042-.077.08.007.106.018.21.027.316.095.025.213.169.294.148.013-.003.024-.015.035-.027.003-.003.007-.003.009-.007.026-.039.044-.114.05-.242l.232.493c.867.233-.037,1.327.338,2.054-.04-.048-.087-.057-.114-.061h0c.226.381.177.862.141,1.209-.008.078-.015.15-.019.211-.006.112,0,.193.039.227l-.149.068-.068.031c.44.506.45.563.498,1.252-.019,0-.05-.015-.078-.016-.028,0-.054.013-.064.07.208.121.416.238.49.697h-.074s0,0,0,0l.223.692c-.083.024-.134.059-.162.102-.028.043-.032.095-.021.152.011.029.022.058.033.087.041.101.105.212.182.329.044.057.088.116.127.174.116.175.188.349.11.506.052.119.103.239.156.357.076.085.15.183.219.274.069.091.133.175.188.233-.027.013-.051.039-.068.088.302.067.278.387.28.672.076.146.154.291.233.436.014-.002.023-.016.035-.022.052-.027.094-.081.13-.148-.082.483.814.802.766.982.025.062.029.107.019.143-.008.029-.03.048-.053.066-.005.004-.007.012-.013.016-.063.042-.152.068-.211.124h0c.023.037.047.072.069.109.028.012.056.016.083.013.109-.01.207-.115.275-.112.051.003.084.067.092.278-.058-.043-.137-.139-.151-.076h0s0,0,0,0c.015.058-.014.158-.056.275,1.019,1.58,2.205,3.06,3.54,4.421h0c.05-.024.101-.042.153-.053.137-.03.285-.01.456.111-.096-.006-.208-.057-.222.029h0s0,0,0,0c-.013.088.132.098.18.101-.01.066-.103.051-.168.094-.022.014-.04.035-.051.068.493-.055.462.344.916.552-.072-.004-.109.014-.129.046-.02.031-.022.076-.027.126.018.017.035.034.054.05.091-.035.149.07.196.182.053.048.109.092.163.139h0c.017-.026.034-.058.054-.115.123.198.291.387.474.568.052.044.102.089.155.133.184.148.383.282.566.413.35.242.655.46.803.664.164.121.334.235.5.353.035.009.072.016.097.031l-.019.023c.059.042.118.084.178.126.246.025.239.099.753.092-.16.037-.227.092-.241.172-.005.027-.003.056.003.089.084.055.17.108.254.162l.341-.087-.074.258c.015.01.031.02.046.029.163.01.281.118.397.233-.028-.015-.033-.009-.04-.005,0,0,0,0,0,0h0c.009.006.018.012.027.017.051-.037.114-.042.176-.051.025-.004.045-.02.071-.021.271-.001.588.162.716.084-.04.426.44.143.382.511.076-.023.161-.029.248-.027,0-.005.001-.009.002-.014.004-.087.02-.172.046-.22.028-.05.068-.06.117.01.014.004.022.007.035.01h0,0l-.045.228c.164.024.317.072.413.115h0c-.033-.038-.063-.099-.09-.169.044.059.08.124.117.182.019.009.037.019.049.027-.012.002-.023,0-.035-.005,0,0,0,0,0,0h0c.061.089.138.157.293.15.343.552,1.274.133,1.636.775-.064-.079-.172-.147-.236-.088.469.174.807.664,1.166.63l.057-.202c.376.049.653.117.929.216l.078-.17c.043.484.138,1.115.25,1.761l.487,1.804c.125-.028-.06-1.241-.251-1.999.568,1.971.713,3.09.756,3.867l.703,2.604c.169.627.369,1.237.589,1.835.023-.16.203-.054.306-.057.147.002.138-.264-.721-2.23.536.886.727,1.899,1.182,2.824.214.466.391.965.683,1.4.293.434.621.855,1.007,1.238l-1.188-.894c.462.643,1.058,1.306,1.405,1.57l-.395.086c.568.42,1.035.874,1.449,1.339.46.421.867.854,1.254,1.262.375.422.814.723,1.209,1.008.409.267.802.491,1.263.52-1.284-.093,1.665,1.119,2.53,1.735-1.103-.277-2.487-1.123-3.575-1.939-.533-.425-1.046-.778-1.422-1.063-.37-.291-.657-.453-.814-.398.618.903,1.582,1.229,2.27,2.009.583.328.929.494.126.139-.043-.048-.087-.096-.126-.139-.607-.375-1.535-.894-1.828-.991.007.008.015.015.022.022.628.611,1.234,1.123,1.818,1.537.623.378,1.208.684,1.758.951,1.157.434,2.142.768,3.168,1.051l-.88-.316-.847-.395c-.558-.277-1.147-.504-1.67-.85.532-.305,1.525.731,2.644.795.79.473,1.555.797,2.312.973.767.149,1.464.358,2.181.575-.27-.054-.376-.043-.541-.071.846.213,1.568.368,2.171.582.682.151,1.24.322,1.73.49.98.325,1.695.499,2.526.522.815-.021,1.993-.199,2.794-.437.799-.275,1.238-.515.674-.524.312-.108.137-.081-.265.001-.201.042-.46.096-.743.156-.288.027-.602.057-.907.086-1.228.13-2.309.05-1.188-.396.581.159,1.176.186,1.807.139.63-.063,1.281-.291,2.014-.494,1.487-.466,3.384-1.165,6.021-1.539-2.168.902,1.449.133-.497.897,2.429-.719,2.486-.872,3.511-1.404l.809.073c3.037-1.45.609-.732,5.364-2.338-1.568.641,2.046-.127.859.392,1.346-.337,2.634-.766,3.572-1.188l-.168.086c4.863-1.442,4.105-.716,8.482-2.227l-.487-.044c2.216-.813,4.709-1.528,7.282-2.194.082.108.162.203.236.26.069-.006.138-.01.206-.016l-.191-.202c.238-.164.539-.01.811.154.24-.023.478-.051.718-.077l-.092-.439c1.08.497.418-.212,1.512.211l-.004.048c.281-.036.562-.068.842-.107.02-.054.039-.118.055-.202l-.167-.075c.555-.132.611-.086,1.187-.129.059-.077.32-.22.42-.082-.054-.592,1.283-.451,1.544-.45-.352.118-.257.285-.12.462.059-.011.118-.021.177-.032.167-.349.343-.404.712-.161-.036-.379-.067-.771.003-1.087.234-.057.464-.114.696-.17-.026.091-.054.195.014.323.355-.785.826-.203,1.478-.58-.177.259.042.366.174.602-.115-.819,1.109.505.618-.494,1.437.303,3.272-.646,4.048-.312.199-.061.399-.119.598-.181.075-.084.15-.161.223-.186l.02.104c.093-.03.183-.064.276-.093.246-.331.332-.222.746-.824.014-.003.026-.005.039-.008-.078.252-.057.419.053.549.18-.061.361-.121.541-.183l.141-.435.178.327c.268-.094.541-.176.807-.273.116-.425.573-.649.751-.899.066-.016.124-.03.203-.048.151.128.258.086.354.014.113-.004.25-.018.391-.033.032.031.063.059.099.113.014-.048.047-.087.067-.132,1.105-.142,2.879-.553,4.701-.975,2.483-.579,5.044-1.174,6.044-1.262,1.452-.606-4.231.976-2.63.336.691-.116,1.01-.137,2.467-.461l-.54-.032c6.791-1.459,9.38-2.028,15.374-3.518l-.238.07c2.139-.511,3.285-.815,4.232-1.079.414-.09-.848.236-.379.13l7.43-2.007c.181.078.35.129.621.175.33.065.655.111.971.148.632.068,1.23.078,1.765.013.267-.032.519-.079.75-.145.255-.074.368-.11.765-.289l-.247-.127c.326-.144.646-.285.929-.411.176.093.35.186.521.277l.262.129c.097.048.172.082.206.09.192.07.343.107.522.145.345.073.701.108,1.061.122.708.04,1.506-.081,2.258-.099l.075-.24c.615-.01,1.478-.131,2.519-.143.264-.002.543.004.853.033.151.014.328.039.486.068.068.011.13.018.194.022.177.03.674-.089,1.056-.135,1.613-.243,2.721-1.05,3.379-1.308.109-.269.642-.761,1.114-1.491.234-.362.446-.782.647-1.171.161-.419.324-.803.411-1.13l.265-.285c.536-1.706.603-2.869.665-3.966h0c3.71-4.257,5.696-9.905,5.265-15.742-.017.286-.04.531-.018-.156-.008.09-.013.135-.027.287.006-.161.01-.3.013-.434-.032-.363-.067-.725-.118-1.089-.003.305-.067.011-.163-.96-.106-.568-.226-1.135-.379-1.702l-2.995-11.087c-.004.203-.162-.223-.301-.605.021-.018.048-.041.067-.057.004,0,.008,0,.01-.008.094-.08.174-.148.247-.209.52-.621.988-1.283,1.384-1.99.015-.137-.215.137-.506.519-.382.499-.941,1.116-1.18,1.314h0l-.003-.012h0c.869-1.251.757-1.323.729-1.398-.033.034-.067.059-.103.089.033-.043.062-.088.09-.134-.031-.103.08-.303.467-1.264.543-.772.778-1.244,1.022-1.919.229-.97.335-1.957.311-2.939-.003.022-.006.041-.01.067-.065.405-.09.79-.188,1.119-.013-.122.101-.785.188-1.119.021-.48.046-.994-.013-1.527-.113-.814-.323-1.522-.604-2.128-.346-.879-.106-.567-.003-.473-.19-.539-.455-1.009-.695-1.451-.175-.218-.353-.43-.548-.714.016.098.022.127-.064-.079.023.029.042.052.064.079-.017-.06-.046-.141-.081-.218-.028-.035-.065-.082-.094-.119.019-.032.056.033.094.119.218.254.403.587.629.932.223.314.468.653.676,1.297.087.199.066.196.019.154.328.816.53,1.722.607,2.6.083.489.114,1.012.154,1.596.039-2.171.362,1.707.16-1.317.117.555.141.697.212.933.063.236.112.576.025,1.535-.341.919-.207-.642-.421-1.129-.009,1.401-.242,2.177-.418,2.779l-.172.608.04-.214c-.332.979-.774,1.929-1.356,2.789l.013.045c.484-.447.954-.843,1.243-.972.046-.094.099-.184.143-.279,1.41-3.029,1.457-6.259.262-9.299.009.041.023.08.032.121-.327-.813-.781-1.568-1.25-2.303.066.052.101.021.17.068-.771-1.267-1.766-2.482-2.99-3.611-.079-.073-.163-.142-.25-.205-.447-.325-.831-.715-1.185-1.129.072.173.139.331.206.492.055.085.083.133.042.101-.014-.035-.028-.067-.042-.101-.082-.126-.238-.351-.428-.657-.079-.131-.16-.274-.241-.425-1.544-2.205-1.955-5.127-1.129-6.873.23-.484.817-1.727,3.393-1.213.261.3.346.866.367,2.5.024,1.837.054,4.112,1.597,6.107,3.315,5.246,10.966,7.254,16.487,4.294,1.014-.544,1.59-1.657,1.448-2.799ZM16.678,62.316c.237-.723.353-1.085.544-1.286l.078.152-.621,1.134ZM19.218,84.137l.224-.871.098.408-.322.463ZM182.78,102.585c.382,1.044.609,1.844.826,2.6.164.418.267.816.343,1.207-.121-.408-.214-.807-.343-1.207-.248-.704-.608-1.442-1.029-2.299.344.529-.173-.776.203-.3ZM161.014,37.94l-.508-.149c-.004-.046-.008-.089-.01-.129l.518.278ZM145.45,18.085l-.181.75c-.186-.07-.367-.153-.561-.199.248-.201.492-.375.742-.551ZM116.315,23.394c.13-.067.343-.162.803-.333-.282.126-.549.235-.803.333-.611.323,2.022-.369,1.434-.026-2.502.428-.272.513-3.023,1.053-.879-.287.006-.41,1.589-1.027ZM95.339,29.086c-.037-.07-.081-.135-.128-.197.051-.028.093-.056.137-.084l.197.237c-.073.016-.136.029-.206.044ZM58.872,38.468s-.008.004-.012.006c-.02.005-.033.006-.054.011.022-.005.043-.012.066-.017ZM24.594,100.769c.197.816.544,1.741.741,2.553-.473.359-.197-.812-.741-2.553ZM180.309,147.006h0c0,.123-.005.246,0,.368,0,0,0,0,0,0-.005-.122,0-.246,0-.368ZM184.374,136.978l.289-1.26c.028-.036-.069.418-.183.95-.095.536-.333,1.118-.391,1.391l.285-1.081ZM182.058,142.944l.185-.315c.251-.493.597-1.02.828-1.62.242-.595.492-1.208.729-1.791.354-1.207.719-2.277.858-2.853-.088.469-.247,1.023-.449,1.63-.196.608-.368,1.29-.674,1.951-.517,1.357-1.238,2.736-1.948,3.879.182-.28.336-.575.47-.882ZM182.075,113.834c-.145.256-.314.499-.484.741h0l-.01-.035h0c.188-.359.353-.727.509-1.089l-.016.384ZM181.225,100.001c-.354-.347-.761-.647-1.142-.957l.672.506c.171.139.311.301.47.451ZM179.912,98.119l-.01-.019c.356.347.574.59.717.755-.156-.177-.385-.428-.707-.736l.279.552c-.554-.604-.661-.884-.678-.935.106.079.28.271.399.384ZM177.728,95.451c.34.527.735,1.028,1.198,1.476.228.183.556.4.726.519-.059-.014-.098-.014-.184-.048-.182-.157-.372-.304-.542-.471-.544-.432-1.01-.945-1.429-1.493.341.405.21.073.231.017ZM176.541,94.694c.031-.116-.393-1.249-.485-1.881.124.393.285.771.461,1.138.061-.135.119.164.941,1.562-.353-.494-.687-1.008-.941-1.562-.046.148.125.809.025.743ZM176.71,92.067c.34,1.997-.388.043-.535-1.036.146.786.25.852.306.833.059-.022.097-.137.229.203ZM180.37,86.174l.744.053.398.814c.217.444.269.813.323,1.194-.061-.305-.043-.027-.043.315,0,.34-.013.755-.049.911-.055-.511-.088-.977-.226-1.637-.016-.206-.049-.445-.153-.712l-.212-.544-.81-.23c-.481-.137-.613-.207.027-.162ZM179.992,86.541l.312.027.582.05.267.594c.227.506.229.749.284,1.023.039.26.065.497.088.732-.091-.704-.262-1.128-.139-.971-.141-.304-.227-.531-.318-.744l-.199-.467-.581-.125c-.112-.024-.174-.074-.296-.118-.298-.023-.614-.022-.941.005.548-.106.79-.055.941-.005ZM181.151,88.278c-.058-.264-.076-.505-.28-.935l-.209-.44-.411-.03c-.478-.035-.975-.039-1.5.069-.222.036-.451.087-.671.177.799-.345,1.505-.312,2.175-.265l.424.03.21.451c.203.436.217.677.272.942.042.254.072.492.099.728-.031-.236-.064-.474-.109-.727ZM181.535,92.039c-.038.094-.216-.402-.266-1.742.165,1.382.162.395.225-.404.032,1.358.085,2.039.04,2.146ZM181.978,92.992c-.202-.791-.247-1.118-.26-1.214.015.07.063.239.102.102.049.463.101.723.145.909-.032-.615.221.902,0,0,.004.063,0,.096.012.202ZM187.486,100.182l-.228-.201c-.785-.412-1.72-.994-2.538-1.583-.783-.628-1.394-1.307-1.552-1.771.804,1.284,3.131,2.959,5.156,3.62-.274-.021-.564-.02-.839-.065ZM191.624,101.221c-.461-.006-.92-.052-1.379-.122.525.064,1.051.076,1.573.067l-.194.055ZM198.333,95.826c-.147-.077-.257-.121-.567-.225l.292.049.18.022c.189.12.352.266.484.428-.118-.104-.248-.196-.388-.275ZM199.43,97.495c.032.059.235-.121.224.322.035-.002-.16.342-.224-.322ZM199.524,96.882c.064-.113.113-.232.159-.361.052.198.236.65.271.909-.119-.215-.266-.399-.429-.548Z" fill="#0f73b0" stroke-width="0"/>
            <path d="M184.318,107.563c-.019-.059-.042-.114-.072-.134.017.266-.018.99.072.134Z" fill="#0f73b0" stroke-width="0"/>
            <polygon points="184.212 107.39 184.213 107.404 184.215 107.393 184.212 107.39" fill="#0f73b0" stroke-width="0"/>
            <path d="M184.24,107.367c.009-.143-.004-.101-.025.026.011.003.021.026.031.036-.002-.016-.005-.051-.006-.061Z" fill="#0f73b0" stroke-width="0"/>
            <path d="M165.071,157.259c.611.182,1.262.26,1.929.265-.882-.082-1.56-.306-1.654-.343-.102.01-.193.038-.275.077Z" fill="#0f73b0" stroke-width="0"/>
            <path d="M25.653,113.547l.22.002-.21.054h0c.046.227.101.451.149.677,0,0,0,0,0,0h0c.017-.075.034-.156.051-.237.009-.042.017-.083.026-.126.055-.28.108-.576.152-.842.053-.32.094-.594.112-.729.006-.043.009-.072.01-.084-.161-.077-.433-.094-.752-.066h0c.082.451.151.905.242,1.353Z" fill="#0f73b0" stroke-width="0"/>
            <path d="M95.462,39.33c.038-.007.064-.029.08-.059.05-.092.021-.266.018-.357-.064.071-.128.119-.162.171-.019.03-.028.062-.02.1,0,.004-.002.006-.001.01.011.037.037.081.084.136Z" fill="#0f73b0" stroke-width="0"/>
            <path d="M95.473,30.675c.023-.079.034-.151.029-.211-.005-.06-.028-.108-.075-.137-.011.07-.01.133-.002.191s.025.109.048.157Z" fill="#0f73b0" stroke-width="0"/>
            <path d="M81.581,20.453s.008,0,.012.001h0s0,0,0,0c-.021-.021-.029-.029-.03-.028,0,0,.006.01.017.027Z" fill="#0f73b0" stroke-width="0"/>
            <path d="M92.626,24.261h0,0c-.346.003-.414-.112-.501-.278h0s-.135.255-.135.255l-.151.285h0,0s.786-.263.786-.263Z" fill="#0f73b0" stroke-width="0"/>
            <path d="M81.452,29.524c.032-.041.063-.082.084-.115-.085.017-.17.03-.255.046-.018.003-.037.006-.056.01l.227.059Z" fill="#0f73b0" stroke-width="0"/>
            <path d="M83.838,19.905s0,0,0,0h0c.015-.053-.025-.106-.183-.143,0,0,0,0,0,0,0,0,0,0,0,0,.1.047.152.096.183.143Z" fill="#0f73b0" stroke-width="0"/>
            <polygon points="73.822 22.311 74.044 22.203 73.708 22.32 73.708 22.32 73.708 22.32 73.822 22.311" fill="#0f73b0" stroke-width="0"/>
            <path d="M77.407,20.676h0s0,0,0,0l-.057-.283-.153.152h0c.115.022.134.071.21.131Z" fill="#0f73b0" stroke-width="0"/>
            <path d="M78.298,20.228h0c.003-.01.013-.023.028-.037.061-.056.196-.133.22-.174.006-.01.005-.018-.006-.023-.022-.01-.083-.007-.207.016-.007.021-.036.044-.069.068-.017.012-.035.023-.052.035-.034.023-.064.045-.073.063-.005.009-.004.018.004.025.016.015.062.025.155.028Z" fill="#0f73b0" stroke-width="0"/>
          </g>
          <g id="Löwe">
            <g id="Highlights">
              <path d="M144.616,60.302c-1.757,1.339-3.099,2.197-4.776,3.043-2.478,1.454-2.965,1.677-7.538,3.759-5.821,3.195-9.718,7.831-10.953,14.428-.154.823-.197,1.667-.292,2.502-.319-.068-.637-.136-.956-.204-.526-.133-.641-.451-.614-.991.408-8.089,4.397-13.818,11.619-17.242,2.763-1.31,5.767-2.106,8.632-3.211,1.505-.58,2.947-1.321,4.421-1.982.139-.062.303-.069.455-.102Z" fill="#fff" stroke-width="0"/>
              <path d="M128.471,38.275c2.546-.031,5.091-.095,7.637-.085,2.545.01,3.628.106,6.532.254,1.37.13,3.578.436,4.46.789-.212.054-2.768-.356-2.983-.337-2.249.207-4.486.201-6.735.402-1.288.115-2.573.301-3.863.332-2.521.061-4.899.281-7.42.259-.729-.006-.939.119-.782.752.553,2.233.408,4.101.381,6.346-.009.759.351,1.886.801,2.651-.108.155-.217.31-.355.507-1.226-1.205-1.945-2.507-1.862-4.279.074-1.566-.155-3.144-.217-4.718-.036-.923-.007-1.848-.007-2.871,1.587,0,3,0,4.413,0Z" fill="#fff" stroke-width="0"/>
              <path d="M141.816,116.327c-2.34,1.645-4.415,3.281-6.224,5.58-2.264,2.876-2.894,5.989-1.078,9.17.104.181.119.413.175.622-2.374-2.126-2.978-5.214-1.549-8.016,1.719-3.371,4.564-5.571,7.774-7.368.227-.127.597.003.901.013Z" fill="#fff" stroke-width="0"/>
              <path d="M126.673,53.228c-.248.541-.609,1.058-.723,1.626-.39,1.942-.543,3.896.15,5.82.026.072-.049.18-.078.271-.286-.388-.705-.737-.835-1.172-.701-2.33-.246-4.666.015-7.032.6-.036,1.256-.462,1.471.487Z" fill="#fff" stroke-width="0"/>
            </g>
            <g id="Shapes">
              <path d="M128.664,142.971c-1.726.881-2.425,2.446-2.662,4.23-.099.743-.381.88-1.04.885-2.769.02-2.89-.111-1.967-2.765.317-.913.719-1.803,1.16-2.664.768-1.497,2.017-2.385,3.654-2.792,3.071-.764,6.143-1.528,9.188-2.386,1.056-.298,2.032-.877,3.087-1.346-1.795-1.443-3.415-2.746-5.034-4.048-.058-.069-.116-.139-.174-.208,0,0,.011.021.011.021-.068-.07-.137-.14-.205-.21,0,0,.007.011.007.011-.056-.208-.072-.44-.175-.622-1.816-3.18-1.526-6.39.738-9.267,1.81-2.299,4.224-3.838,6.564-5.483.609.13,1.217.26,1.826.39.525.195,1.049.391,1.583.59-3.555,7.357.397,13.577,4.844,16.096.517.331.998.751,1.558.975,1.257.503,1.89,1.465,2.318,2.677.466,1.322.346,1.809-.958,2.381-2.606,1.143-5.223,2.265-7.867,3.317-1.982.788-4.007,1.47-6.027,2.161-.832.285-1.519.683-1.906,1.514-.673,1.445-1.817,1.953-3.394,1.853-1.612-.103-3.236-.021-4.855-.029-1.353-.006-1.869-.542-1.535-1.87.295-1.169.83-2.278,1.26-3.413.082-.023.164-.047.246-.07-.017-.024-.035-.048-.052-.072-.065.048-.129.095-.194.143Z" fill="#9ed1ed" stroke-width="0"/>
              <g>
                <path d="M105.233,41.76c.191-2.383,3.045-4.06,5.367-3.802.821.111,1.576.62,2.255,1.042,2.308,1.624,4.649,3.579,5.655,6.274-1.764-1.254-4.979-3.072-6.881-4.321-.478-.27-.908-.582-1.423-.766-1.642-.223-3.694.347-4.972,1.574h0Z" fill="#fff" stroke-width="0"/>
                <path d="M106.749,51.635c-2.392-.954-3.444-3.647-3.89-5.983-.281-1.083.61-2.222,1.532-2.361.533-.108,1.047-.071,1.501.163-.381.333-.686.614-.89.916-.206.289-.267.577-.175.639.032.044.073.016.108.095.887,2.148,1.256,4.246,1.815,6.53h0Z" fill="#fff" stroke-width="0"/>
              </g>
              <path d="M112.909,51.147c-2.441,1.875-5.581,1.772-7.421-.695-1.084-1.453-1.566-3.427-2.034-5.24-.276-1.069.483-1.904,1.618-2.031,1.261-.141,2.55-.032,3.962-.032-1.118-1.113-2.457-1.259-3.801-1.389.658-1.872,4.037-3.583,5.683-2.763,2.445,1.219,4.644,2.817,6.553,4.8,1.747,1.815,1.786,4.154,2.053,6.427.455,3.883.874,7.77,1.357,11.65.102.822.417,1.617.607,2.325,1.901.111,3.714.216,5.527.322.016.104.032.208.047.312-5.088,3.167-8.478,7.533-9.607,13.619-2.342-.966-4.525-2.073-5.431-4.537-.562-1.527-.893-3.186-1.03-4.812-.392-4.65.404-9.234,1.045-13.817.196-1.397.568-2.769.86-4.152.024-.006.051-.007.071-.02.012-.007.013-.033.019-.05-.026.028-.052.055-.078.083Z" fill="#9ed1ed" stroke-width="0"/>
              <path d="M187.658,82.249c-6.919-7.087-19.651-.79-19.507,8.716-1.02,6.919,8.862,10.628,6.301,17.26-.946,1.722-3.341,2.886-5.394,2.55-5.76-1.946-12.729-9.791-15.72-15.357-7.168-12.733,13.313-18.183,10.441-30.996,4.643,10.648-9.688,17.56-4.851,27.833.534-5.485,5.34-8.958,9.178-12.268,2.753-4.791,2.739-9.873,1.219-15.115,2.328,2.604,3.871,5.366,4.225,8.767,4.013-7.879,1.625-17.34-5.364-22.679,2.506.823,4.514,2.324,6.488,4.429-1.095-8.446-8.047-13.946-15.879-15.735-5.113-3.301-12.71-6.677-18.276-2.561,6.369-.398,19.639,2.768,14.918,11.494-1.752-15.062-19.455-7.84-29.484-8.924-.729-.006-1.134.339-.978.972,1.028,3.083-.905,6.437,1.522,9.002.585-.195.879-1.431,1.791-.463,2.382,2.388,7.233,2.697,9.541.243,1.048.442,1.529,1.254,1.408,2.416-.293-.194-.576-.381-.842-.556-4.354,3.683-8.193,4.31-11.724,1.952-1.454,2.352-1.064,5.189-.651,7.717,7.496-1.41,16.522.11,22.021-6.356-4.27,13.551-26.063,8.646-26.985,29.445,1.429.59,2.858,1.18,4.36,1.799,1.974-4.701,5.278-8.019,9.987-9.925-4.389,3.191-6.985,7.547-8.321,12.821-4.826-2.567-9.644-4.583-14.745-6.3.775.621,1.545,1.267,2.294,1.968,3.986,3.731,6.706,8.524,8.317,14.653l.013.051.012.051c.169.708.312,1.415.441,2.12,5.233,2.876,11.332.719,15.748-3.042-1.737,4.354-6.23,6.539-10.755,6.922,3.92,5.127,9.325,8.276,15.454,9.937,3.122,1.633,4.495-1.909,7.21-2.649-8.046,6.96-4.586,18.712,5.151,21.728,5.232,2.355,16.239,1.764,13.889,10.222-3.581,4.229-7.748-2.745-10.97,10.096,4.319.683,4.604-1.273,6.776-4.29-3.374,7.022,2.794,3.574,7.097,4.459,7.735-.469,4.612-14.968,6.001-20.456,1.083-5.82-11.018-2.097-11.063-16.571,11.144,1.409,19.446-9.742,10.19-18.284-6.457-4.699-6.023-17.104,3.447-14.644,3.474,2.08.72,6.743,3.057,9.585,2.33,3.837,8.428,5.837,12.886,3.445-8.919-2.239-5.047-10.297-9.878-15.48ZM168.135,50.933h0c-.074-.011-.127-.019,0,0ZM127.037,44.607c-1.87-5.23.955-3.217,4.289-2.298.027.08.054.161.08.241-1.388.653-2.775,1.307-4.37,2.057ZM138.793,42.476c2.404-1.862,5.947-.454,6.866,2.584-1.898-1.726-4.449-1.819-6.866-2.584ZM167.956,117.628c.005-.082.045-.15,0,0h0Z" fill="#9ed1ed" stroke-width="0"/>
            </g>
            <g id="Shapes-2" data-name="Shapes">
              <path d="M187.384,82.065c-6.696-6.373-18.958-.247-18.646,8.703-.188,1.448.109,2.88.831,4.231,1.836,3.506,5.716,6.334,5.93,10.671-.034.46-.052.927-.118,1.38l-.374,1.312-.012.042c-1.307,2.21-3.838,3.344-6.34,2.978-6.842-2.722-12.354-9.741-15.591-16.147,3.861,5.877,9.691,12.15,15.85,14.567,1.692.247,3.71-.748,4.485-2.188.32-.748.477-2.718-.179-3.889-1.967-4.246-7.093-7.734-6.195-13.068-.218-9.422,13.264-16.589,20.358-8.59h0Z" fill="#fff" stroke-width="0"/>
            </g>
          </g>
          <g id="Personen">
            <path d="M43.787,151.292c6.428,1.639,12.57.838,18.26-2.517,5.292-3.12,8.756-7.737,9.533-13.914.922-7.331-1.691-13.315-7.805-17.573-4.366-3.04-9.423-3.909-14.609-4.289-1.541-.113-3.104-.288-4.592-.68-2.652-.697-4.707-2.326-6.016-4.733-2.681-4.929-3.149-10.19-2.102-15.634.072-.374.225-.748.412-1.082.484-.861,1.23-1.297,2.237-1.267.996.029,1.745.536,1.976,1.442.478,1.871.825,3.778,1.181,5.678.417,2.222.692,4.474,1.202,6.673.592,2.551,2.253,4.341,4.723,5.115,3.509,1.099,7.069,2.048,10.639,2.933,5.738,1.423,10.715,3.963,14.146,9.001,5.58,8.196,4.925,19.371-1.598,26.953-4.706,5.469-10.712,8.476-17.831,9.135-2.682.248-5.416-.057-8.126-.11-1.56-.403-3.166-.679-4.671-1.231-7.17-2.625-12.531-7.215-14.677-14.74-2.408-8.443.01-15.686,6.233-21.736.805-.783,1.152-1.112,2.587-2.173,2.113-1.264,3.315-1.7,5.03-2.414,1.51-.628,3.113-.581,4.742-.104-3.345,1.682-6.399,3.713-8.83,6.572-4.969,5.541-7.219,11.849-4.78,19.147,2.049,6.131,6.532,9.858,12.738,11.546Z" fill="#9ed1ed" stroke-width="0"/>
            <path d="M74.169,117.812c-1.033-1.394-1.564-1.754-3.396-3.165l-.559-.405c-.425-.266-1.24-.617-2.071-1.12-3.452-2.088-7.289-3.084-11.216-3.824-1.615-.305-3.232-.67-4.79-1.185-3.856-1.274-6.214-3.925-6.991-7.95-1.287-6.67-.321-12.825,4.137-18.178,2.553-3.065,5.813-5.149,9.528-6.479,8.55-3.06,14.743-8.674,18.553-16.902,1.072-2.316,2.003-4.696,3.006-7.045.122-.285.283-.552.52-1.007.653,1.964,1.27,3.72,1.821,5.497,3.177,10.235,9.385,17.96,18.933,22.934,1.203.627,2.395,1.275,3.592,1.913,2.395,1.863,4.944,3.562,7.15,5.627,3.607,3.377,5.749,7.686,6.999,12.443.94,3.94,1.233,7.926.687,11.942-.188,1.378-.644,2.72-.977,4.079-.106-.011-.212-.021-.317-.032-.272-1.199-.507-2.407-.822-3.594-1.241-4.678-2.845-9.207-5.642-13.221-.459-.659-1.003-1.259-1.508-1.887-.6-.67-1.2-1.339-1.967-2.196v1.25c-.469,3.588.382,6.992,1.399,10.385,1.212,4.045,2.63,8.053,3.487,12.175,1.899,9.144,1.024,18.073-2.945,26.61-1.219,2.622-2.82,5.001-4.706,7.191-.071-.186-.197-.371-.202-.559-.022-.833-.009-1.667-.008-2.5.003-.126.006-.253.009-.379.06-.648.12-1.296.181-1.945.009-.196.018-.393.027-.589.224-2.251.494-4.498.665-6.753.462-6.113.142-12.163-1.843-18.017-.621-1.832-1.512-3.573-2.342-5.5-2.233,3.047-4.022,10.385-3.853,15.292-.121,2.198-.287,4.395-.354,6.595-.113,3.694-.147,7.39-.252,11.084-.031,1.089-.188,2.174-.288,3.261l-.371.268c-.07-.208-.092-.454-.218-.619-3.651-4.76-5.436-10.241-6.297-16.096-1.021-6.943-.115-13.762,1.258-20.552.977-4.829,1.892-9.659,1.709-14.625-.255-6.948-2.48-13.265-6.179-19.079-3.211-5.047-5.695-10.374-6.801-16.288-.083-.444-.138-.894-.206-1.341-.066-.434-.131-.868-.362-1.32-.329,1.077-.634,2.161-.992,3.229-2.153,6.433-8.831,11.671-13.866,16.132-2.205,1.954-3.526,3.885-5.051,6.464-1.62,2.741-2.561,5.651-1.942,8.887.468,2.446,1.941,4.238,3.944,5.544,1.808,1.179,4.672,2.169,6.582,3.184,2.509,1.333,4.954,2.877,7.283,4.466,1.845,1.203,6.381,6.676,6.99,11.591.632,5.096,1.009,10.082-.931,14.869-.396.978-.915,1.905-1.377,2.856-.112-.002-.224-.003-.335-.005-.142-.822-.369-1.639-.413-2.467-.195-3.696-.51-7.374-1.769-10.887-.511-1.427-1.094-2.848-1.829-4.169-.781-1.404-1.269-2.039-1.671-2.656l-.801-1.231Z" fill="#9ed1ed" stroke-width="0"/>
            <path d="M56.911,74.253c-4.693-.137-8.091-4.326-6.996-8.718.865-3.466,4.132-5.734,7.792-5.41,3.338.295,5.926,2.569,6.544,5.54.732,3.519-1.633,7.037-4.658,8.001-.869.277-1.786.395-2.682.586Z" fill="#fff" stroke-width="0"/>
            <path d="M100.015,75.193c-4.559-.139-7.86-4.367-6.796-8.801.84-3.499,4.013-5.789,7.569-5.462,3.242.298,5.756,2.594,6.356,5.593.711,3.552-1.587,7.104-4.525,8.078-.844.28-1.735.399-2.605.592Z" fill="#fff" stroke-width="0"/>
            <path d="M56.734,74.233c-4.451-.127-7.673-3.992-6.634-8.046.82-3.199,3.918-5.292,7.389-4.993,3.165.273,5.619,2.371,6.205,5.113.694,3.248-1.549,6.495-4.418,7.385-.824.256-1.694.365-2.543.541Z" fill="#9ed1ed" stroke-width="0"/>
            <path d="M94.026,68.607c-.005-3.707,2.847-6.535,6.597-6.54,3.783-.005,6.679,2.827,6.702,6.555.023,3.702-2.8,6.445-6.632,6.446-3.788.001-6.662-2.784-6.667-6.462Z" fill="#9ed1ed" stroke-width="0"/>
            <path d="M65.487,81.364c-1.641,1.632-2.881,3.566-4.055,5.528-3.956,5.874-5.092,12.945,2.681,16.098,4.282,1.682,8.507,3.971,12.236,6.618,3.656,2.926,6.435,7.329,6.907,12-1.19-4.289-4.136-8.204-7.694-10.76-1.978-1.177-3.934-2.341-5.964-3.372-4.092-2.346-9.385-2.957-11.851-7.561-2.441-4.691.089-9.824,2.997-13.477,1.369-1.865,2.864-3.709,4.743-5.074h0Z" fill="#fff" stroke-width="0"/>
            <path d="M91.104,134.981c-3.419-11.513,1.966-22.897,3.051-34.315.994,5.772-.344,11.621-1.415,17.277-1.105,5.646-1.776,11.254-1.637,17.038h0Z" fill="#fff" stroke-width="0"/>
            <path d="M48.285,83.06c2.397-3.061,5.811-5.263,9.462-6.667,3.59-1.342,6.987-3.126,9.941-5.488,4.473-3.525,7.712-8.399,9.827-13.643,0,0,1.175-2.638,1.175-2.638.545-1.386,1.513-3.102,2.3-4.439,0,0,.664,1.909.664,1.909l1.662,4.776c2.426,7.876,7.246,14.991,14.038,19.745,2.685,1.957,5.706,3.425,8.663,5.087,2.383,1.898,4.959,3.628,7.152,5.786-2.307-1.853-5.254-3.611-7.514-5.17-3.032-1.404-6.151-2.776-9.023-4.647-7.254-4.651-12.51-12.029-15.058-20.226,0,0-1.662-4.74-1.662-4.74l1.68.138c-.45.755-.845,1.657-1.244,2.543-1.154,2.476-2.399,5.589-3.853,7.894-4.052,6.831-10.919,11.738-18.461,13.945-3.644,1.097-7.053,3.053-9.751,5.838h0Z" fill="#fff" stroke-width="0"/>
          </g>
        </g>
        <g id="Sonnenblume">
          <g>
            <ellipse cx="50.059" cy="132.689" rx="5.786" ry="6.066" fill="#fff" stroke-width="0"/>
            <g>
              <path d="M44.275,132.646c0,.006-.002.037-.002.043.004-.092.002-.043.002-.043Z" fill="#fff" stroke-width="0"/>
              <polygon points="44.352 131.743 44.35 131.759 44.369 131.627 44.352 131.743" fill="#fff" stroke-width="0"/>
              <path d="M44.533,130.916c-.102.401-.07.276-.113.444l-.006.024-.015.066c.041-.162.089-.354.134-.535Z" fill="#fff" stroke-width="0"/>
              <path d="M44.693,130.494c-.012.025.032-.092-.037.098.003-.008.005-.012.007-.018.006-.017.014-.038.03-.081Z" fill="#fff" stroke-width="0"/>
              <path d="M44.663,130.574c-.031.084.022-.054,0,0h0Z" fill="#fff" stroke-width="0"/>
              <path d="M44.819,130.194l-.049.106c.012-.021.058-.115.042-.08.052-.108.039-.087.007-.027Z" fill="#fff" stroke-width="0"/>
              <path d="M44.863,130.092l-.026.055c.008-.018.002-.004.026-.055Z" fill="#fff" stroke-width="0"/>
              <path d="M44.784,130.264l.054-.117c-.008.015-.011.016-.025.054.003-.01-.006.013-.029.063Z" fill="#fff" stroke-width="0"/>
              <path d="M44.751,130.33c-.025.061-.054.141-.016.029-.076.211-.063.181.016-.029Z" fill="#fff" stroke-width="0"/>
              <path d="M44.541,130.873l-.024.085-.017.074c.018-.071.009-.033.041-.159Z" fill="#fff" stroke-width="0"/>
              <path d="M45.171,129.557c.002-.007-.026.03-.034.036l-.043.075c.024-.037.07-.108.076-.111Z" fill="#fff" stroke-width="0"/>
              <path d="M45.137,129.593l.064-.112c-.061.098-.07.117-.064.112Z" fill="#fff" stroke-width="0"/>
              <polygon points="44.865 130.07 44.778 130.264 44.882 130.033 44.865 130.07" fill="#fff" stroke-width="0"/>
              <polygon points="45.45 129.152 45.411 129.214 45.481 129.104 45.45 129.152" fill="#fff" stroke-width="0"/>
              <path d="M45.648,128.894c-.029.046.057-.049.024-.003.06-.065.107-.123.148-.177-.046.055-.102.109-.172.18Z" fill="#fff" stroke-width="0"/>
              <path d="M45.891,128.625c-.016.02-.043.053-.071.089.016-.02.037-.046.071-.089Z" fill="#fff" stroke-width="0"/>
              <path d="M45.32,129.296c.007-.007.023-.02.068-.076l-.038.036-.031.041Z" fill="#fff" stroke-width="0"/>
              <path d="M45.35,129.256h.001c.033-.045.056-.075.066-.089-.008.011-.029.038-.068.089Z" fill="#fff" stroke-width="0"/>
              <path d="M45.313,129.306s.008-.01.008-.01l-.008.01Z" fill="#fff" stroke-width="0"/>
              <path d="M45.019,129.768c.037-.067.114-.205.031-.076-.024.049.024-.025-.031.076Z" fill="#fff" stroke-width="0"/>
              <path d="M45.27,129.353l-.073.117s.018-.021,0,.012l.072-.129Z" fill="#fff" stroke-width="0"/>
              <polygon points="45.304 129.296 45.27 129.353 45.297 129.31 45.304 129.296" fill="#fff" stroke-width="0"/>
              <path d="M45.723,128.788c.077-.089.095-.11.128-.149-.066.07-.116.122-.162.171-.005.01-.023.039.034-.023Z" fill="#fff" stroke-width="0"/>
              <path d="M45.536,129.011l.007-.011c-.006.006-.007.011-.007.011Z" fill="#fff" stroke-width="0"/>
              <polygon points="46.37 128.147 46.359 128.152 46.359 128.156 46.37 128.147" fill="#fff" stroke-width="0"/>
              <path d="M45.678,128.82c-.043.041-.061.072-.078.1.024-.037.054-.073.089-.109.002-.005.002-.006-.011.008Z" fill="#fff" stroke-width="0"/>
              <path d="M46.023,128.475c-.027.025-.052.048-.075.069.023-.019.07-.059.075-.069Z" fill="#fff" stroke-width="0"/>
              <path d="M45.558,128.986l-.005.007c.013-.014.011-.013.005-.007Z" fill="#fff" stroke-width="0"/>
              <path d="M45.558,128.986c.011-.017.027-.042.042-.066-.016.023-.034.048-.056.08l.014-.014Z" fill="#fff" stroke-width="0"/>
              <path d="M46.464,127.922c.001.019-.111.126-.217.21-.088.1.007.074.112.02,0-.007-.007-.014.09-.107-.045.02-.236.186-.162.097.126-.129.111-.097.187-.142-.072.03.162-.163.111-.165l-.118.107c-.005-.002.035-.044-.003-.02Z" fill="#fff" stroke-width="0"/>
              <path d="M46.166,128.321l-.04.038c.049-.04.086-.067.157-.113.064-.066.075-.083.076-.091l-.205.179.013-.014Z" fill="#fff" stroke-width="0"/>
              <path d="M45.948,128.533c.019-.042.107-.143.039-.094-.109.123-.068.093-.13.169.175-.197-.046.06.088-.075-.045.051-.069.078-.094.107.029-.029.061-.06.097-.096l-.005.004h0s0,0,0,0c-.009.007-.012.009-.003,0l.004-.004s.002-.007.004-.012c.054-.054.011-.006-.004.012v.004s0,0,0,0c.056-.068.118-.13.183-.189-.042.037-.098.079-.178.174Z" fill="#fff" stroke-width="0"/>
              <path d="M45.11,129.563c.005-.007.006-.007.006-.007.008-.015.011-.021-.006.007Z" fill="#fff" stroke-width="0"/>
              <path d="M45.169,129.47c-.013.023-.031.057-.047.086-.029.046-.006,0-.006,0-.017.034-.063.117,0,.016l.009-.017c.056-.091.135-.204.126-.187-.022.023-.04.044-.082.102Z" fill="#fff" stroke-width="0"/>
              <path d="M45.532,128.968c.043-.06.082-.123.132-.177-.027.026-.056.051-.079.081h.008c-.076.099-.055.081-.061.096Z" fill="#fff" stroke-width="0"/>
              <path d="M46.394,128.136l-.01.032c.027-.033.05-.07.079-.1-.026.02-.046.045-.069.068Z" fill="#fff" stroke-width="0"/>
              <polygon points="46.619 127.964 46.621 127.984 46.675 127.932 46.619 127.964" fill="#fff" stroke-width="0"/>
              <path d="M55.515,135.974l-.016.073c.011-.032.015-.055.016-.073Z" fill="#fff" stroke-width="0"/>
              <path d="M55.758,135.523l-.034-.029c.011.031.023.047.034.029Z" fill="#fff" stroke-width="0"/>
              <path d="M52.904,127.944c.036.105.051.246.089.176l.025-.082c-.058-.023-.091-.057-.115-.094Z" fill="#fff" stroke-width="0"/>
              <path d="M55.758,131.519l.026-.033c-.038-.016-.073-.031-.106-.045.028.022.054.049.081.078Z" fill="#fff" stroke-width="0"/>
              <path d="M56.175,131.514l-.044.142c.018-.033.033-.079.044-.142Z" fill="#fff" stroke-width="0"/>
              <path d="M53.69,138.07l-.02.114c.107-.076.035-.076.02-.114Z" fill="#fff" stroke-width="0"/>
              <path d="M49.252,126.929c.081.008.143.009.198.006-.096-.016-.178-.044-.198-.006Z" fill="#fff" stroke-width="0"/>
              <path d="M54.721,135.34c0,.042.008.063.028.072.005-.04-.004-.069-.028-.072Z" fill="#fff" stroke-width="0"/>
              <path d="M49.675,126.93c-.017-.005-.027-.007-.042-.011-.073.006-.12.01-.183.015.071.009.152.03.225-.004Z" fill="#fff" stroke-width="0"/>
              <path d="M45.192,136.05c-.003-.007-.005-.011-.009-.019,0,0,.003.007.009.019Z" fill="#fff" stroke-width="0"/>
              <path d="M44.329,133.479c.005.035.011.071.017.111-.004-.029-.006-.042-.017-.111Z" fill="#fff" stroke-width="0"/>
              <path d="M47.599,127.401c-.053.026-.007.007,0,0h0Z" fill="#fff" stroke-width="0"/>
              <path d="M47.286,127.436c.01-.009.016-.017.014-.023-.001.008-.006.016-.014.023Z" fill="#fff" stroke-width="0"/>
              <path d="M50.263,126.627h.005c-.018-.011-.015-.009-.005,0Z" fill="#fff" stroke-width="0"/>
              <path d="M47.511,127.427c.028-.009.052-.017.073-.024-.017.006-.04.013-.073.024Z" fill="#fff" stroke-width="0"/>
              <path d="M47.528,127.433c-.02.008-.035.013-.049.019-.005.007.003.007.049-.019Z" fill="#fff" stroke-width="0"/>
              <path d="M47.674,127.366c-.029.012-.054.022-.089.036.012-.003.014-.002.014-.002.016-.008.039-.018.075-.035Z" fill="#fff" stroke-width="0"/>
              <path d="M49.264,138.824l-.013-.007c-.065.006-.037.008.013.007Z" fill="#fff" stroke-width="0"/>
              <polygon points="54.652 128.351 54.644 128.348 54.648 128.358 54.652 128.351" fill="#fff" stroke-width="0"/>
              <path d="M54.862,128.483c-.155-.005-.18-.054-.214-.126l-.144.223.358-.097Z" fill="#fff" stroke-width="0"/>
              <path d="M54.823,136.983l.176-.075c-.034.235-.176.317.022.27-.187-.183.405-.539.182-.722l.117-.055c-.021.024-.01.037-.032.061.244-.101-.088-.247.089-.455.068-.07.141-.107.138-.034.014-.074.033-.144.042-.219.032-.053.072-.016.04.037l.12-.304.007.006c-.023-.062-.045-.185-.053-.242.075-.057.012.049.056.045.004-.063.006-.126.001-.191.097-.04.124.129.055.236.355-.038-.011-.163.283-.445l-.023.176c.201-.047.193-.197.362-.356-.07.034-.396.291-.4.08.038-.045.082-.11.047-.229.106.03.106-.079.133-.206l.14.044c-.005-.149-.081-.155-.125-.249.054-.147.169-.159.269-.179.063-.248-.207.14-.188-.16.082-.197.062-.353-.016-.605.059-.14.089.032.134-.017l-.111-.136c.004-.031.04-.019.058-.013-.04-.11-.148-.017-.18-.184-.154-.043.245-.343.044-.548.04-.053.092.02.149.001-.138-.279-.095-.243-.293-.453l.067-.208c-.088.16-.246-.006-.374-.137-.045.058-.086.107-.104.138-.039-.075-.07-.151-.118-.222.017-.033.072-.02.142.007l-.045-.036c.033-.096.126-.071.222-.025-.021.036-.043.071-.07.105.097.044.203.085.287.058-.019-.014-.039-.043-.052-.076.026.012.049.019.063.008.014-.011-.022-.033-.066-.067l.147-.09h-.067s.015-.358.015-.358c-.212-.203-.525-.319-.702-.639.139.043.185-.052.315-.099-.102.151.16.258.2.46-.02-.103.051-.103.082-.084l-.25-.294c.107-.032.058-.104.06-.207-.177.149-.251-.184-.374-.284.063-.041.146-.043.207.126.061-.249-.335-.118-.304-.344.023.036.025.061.067.058-.109-.056-.187-.29-.103-.273l.023.036c-.109-.27-.496-.724-.655-.648.016-.016.191-.101.23-.108-.26-.019-.53-.009-.772-.002.141-.065.286-.43.51-.309-.03-.065-.071-.145-.207-.217.018.049-.078.231-.129.193,0-.236-.021-.143-.083-.388.03.069-.184.179-.256.102.035-.013.143-.168.189-.158-.12-.007-.231-.018-.348-.018.078.011.129-.131.118-.215-.004.049-.191-.146-.263-.173l.064.108c-.231-.213-.414.051-.655-.112.051-.016.217-.168.095-.27-.118.045-.514.257-.761.213l-.018-.072-.195-.032c.154-.073.606-.199.851-.21-.078-.098.007-.077-.155-.148-.032-.072.127-.032.176-.01l-.364-.202c-.033.106-.335-.027-.358.07.154.011.299.049.454.072-.043.116-.365.163-.615.056-.051-.064.122-.159.132-.195-.05.022-.282-.024-.298-.056l.135-.014c-.142-.085-.288.038-.446-.093-.061-.022-.16-.166-.186-.113.08.131,0,.475-.084.537-.016-.012-.234-.169-.345-.249-.089-.097.194-.172.12-.255-.009.025-.074.048-.1.054-.064-.03.042-.073-.108-.081-.039.088-.298-.047-.082.067-.146.009-.148-.046-.318-.051.047.059-.167.184-.305.197.009-.021-.021-.05-.036-.063-.286-.033-.442-.031-.712-.023-.026-.019-.159-.024-.107-.061-.037.02-.07.05-.152.066-.168-.03.183-.042.052-.092-.006.043-.208.095-.32.139.047.052.271-.034.387-.081.009.088-.181.21-.444.281-.209.06-.103-.029-.138-.012-.401.098-.31.185-.643.252-.142.006-.034-.074-.073-.092.163-.081.267-.073.386-.101l-.152.018c.051-.028.164-.071.232-.075-.125-.019-.677.2-.973.328-.046.037-.129.092-.081.083l.089-.05c.096-.015-.153.119-.033.075-.113.078-.238.16-.405.251l-.049-.011c.009.006.117-.047.157-.084-.06.053-.274.115-.324.197l.126-.051c-.108.083-.233.194-.37.29.079-.022.029-.026.146-.067-.116.013.367-.218.198-.174.13-.023.191-.093.352-.131-.01-.009-.063.002.068-.049.007-.007.017-.017.023-.022l.009-.003-.008.002s.005-.005-.003,0c-.033.009-.061.014-.074.013.05-.054.253-.147.314-.194.078-.029-.025.029.023.023l.092-.07c.024.024.229-.021.052.057l.166-.053c.105-.014.241-.048.318-.089.081-.012.19-.083.128-.041l.26-.08.005.009c.26-.047.536-.159.848-.086.088-.012.181-.028.33-.014l.03.045c.115-.018.337.083.388.035.113.13.532.126.719.194l.022-.068c.13.042.257.068.427.09l.009-.067c.163-.02.338.19.551.27-.025.019-.076-.011-.108-.042.182.259.574.155.727.401.066.011.098.046.123.087l-.015-.005.02.015c.015.027.032.059.047.085-.01-.031-.022-.059-.036-.077.04.026.105.059.176.082l-.026.089c.006.003.008.004.014.008.033.072.067.002.077-.076.036.012.072.019.105.018-.044.152.177.083.138.255.092-.035.298.2.44.108-.013.018-.005.04-.034.013.045.071.089.142.175.16l-.064.109.236.022c.014.134.007.196-.131.179.271.102.178.116.424.203l-.072.041c.046.062.208.101.18.18-.015.219.43.761.456,1.233.215-.178-.043.236.151.18-.05.046-.064.115-.138.066.129.192.013.34.21.445-.055.041-.1-.022-.131.009.017.013.069.054.037.086-.031.031-.059-.018-.093-.045.059.211.256.192.439.171-.054.134-.038.187.093.253-.053.052-.106.129-.148-.01,0,.084-.015.498.126.494-.036.029-.006.115.012.136,0,.185-.013.201.01.381l.022-.05c.186.07.04.152.055.299l-.018-.005c-.149.328.064.153-.116.468l.113-.006c.232.061-.182.276-.118.476l.072-.058c.071.126-.38.223-.426.309-.025.016-.024-.042-.032-.075-.194.22.132.067.119.27-.082.015-.179-.098-.221.025-.079.038.116.443-.082.565.069-.015.138-.032.143.072-.043.143-.352.261-.243.459-.023.009-.039.008-.052.002-.012.116-.105.348-.058.458-.337-.104-.251.677-.51.48l-.202.271-.018-.028c-.146.157-.16.249-.162.359-.05.021-.043-.025-.051-.039-.263.186-.273.21-.396.492l-.078-.055c-.023.098-.442.163-.648.418-.002-.01-.004-.027.011-.05-.265.267-.817.186-.84.492-.063.055-.132.099-.201.142.302-.066-.01.124.126.132-.117.047-.33.008-.188-.046l.026.006c.015-.149-.381.062-.393-.03-.585.143-1.176.116-1.733.084l.056.082-.196-.029c-.049-.024-.06-.064.078-.045-.067-.049-.239.006-.246.02-.269-.061.121-.067.037-.08l-.114-.007.024.011c-.097.016-.113.051-.277.006-.102-.037-.044-.051-.085-.063,0,0-.012-.009-.063-.016l-.242-.059.083.067c-.117.002-.225-.07-.132.02-.068-.068-.286-.15-.5-.225-.205-.095-.406-.185-.449-.215-.153-.047-.281-.137-.446-.237.037.03.043.074-.096-.018.084-.014-.227-.206-.309-.318.071.102-.371-.291-.248-.146-.1-.097.007-.02-.063-.099-.261-.205-.519-.512-.766-.837-.007-.003.029.056-.028-.012l-.114-.184c-.051-.063-.06-.05-.127-.183.009.019.021.048-.007.002-.423-.684-.732-1.484-.85-2.297.016.11.005.037-.008-.047.008.055,0-.001,0,.01-.014-.113-.038-.226-.045-.34-.015-.298-.006-.119-.02-.404l.005.109c-.007-.145.01.202.008.181-.002.163.047.424.082.688.008.058-.008-.049-.004-.018.007.067.025.147.061.293l-.004-.017c.092.414.15.587.311,1.036l-.01-.034.067.159c.054.105-.116-.263-.066-.168.044.129.294.66.34.741.076.139-.015-.045.061.094l.016.039.025.032c.048.092.07.14.07.145-.014-.023-.039-.064-.052-.084.059.122.212.315.233.357l-.082-.129c.234.364.575.775.892,1.051l-.017-.029c.237.215.185.177.457.401l-.011-.006c.114.076.166.11.217.144-.081-.039.124.116.019.063.302.177.153.084.368.17l.036.044c.079.019.09.013.248.088-.137-.049.083.086-.072.033.3.24.52.183.644.336.184-.008-.282-.165-.188-.143-.064-.052.15,0,.255.05.107.048.154.169.444.258l-.061-.013c.103.054.217.041.345.107.087-.042.177.039.211-.032l-.273-.035c.158.014.314-.052.559.036-.021.013-.099.021-.152.022.071.036.144.014.219.046-.032.083-.333-.043-.508-.018.075.049.323.008.227.075.134-.081.294.077.508.001l-.017.05c.033-.005.102-.023.162-.017l-.112.057c.169-.043.324.091.488.052-.34-.001-.077-.063-.22-.111.41-.074.241.15.715.118-.063.016-.244-.033-.146-.059.091.016.211.023.27.05.311-.046-.057-.058.07-.111.117.064.147-.048.275-.091l.014.065c.359-.019.061-.154.38-.171l-.106.124.156-.061-.012.085c.162-.099.223-.088.4-.126-.056-.036-.022-.134.123-.188.117.007-.03.087.176.004-.028.061-.061.134-.178.1,0,.026-.031.06-.032.086.13.012.286-.081.363-.109-.031.007-.069.016-.092.012.092-.064.172-.149.255-.226.059.006.034.044.007.082.057-.035.082-.087.166-.134.008.069.046.127-.069.212l.255-.195c.035.02.183-.007.16.035.176-.056.311-.319.527-.411.002-.018.013-.043.047-.08.184-.114.41-.155.53-.409h.207c.131-.158-.27.01-.057-.253.135-.197.149.019.237-.014.031-.138.058-.379.291-.472-.022.075-.081.101-.117.159ZM56.001,134.802c.006.052.039.167-.034.179-.099-.093-.028-.112.034-.179ZM55.888,131.137c.044.025.039.081.013.149-.019-.04-.027-.089-.013-.149ZM48.194,127.144l.004-.003c.097-.016.062-.011-.004.003ZM47.998,127.192c-.017.011-.014.015-.004.017.01-.013.053-.028.102-.041-.017-.004-.044-.002-.098.025ZM48.685,138.403l.035.019c-.089-.008-.062-.013-.035-.019Z" fill="#fff" stroke-width="0"/>
              <path d="M56.127,131.512c-.017.017-.036.024-.057.03.021.015.043.012.057-.03Z" fill="#fff" stroke-width="0"/>
              <polygon points="53.693 138.049 53.687 138.053 53.69 138.07 53.693 138.049" fill="#fff" stroke-width="0"/>
              <path d="M51.132,126.458c.043.015.065.03.079.045.006-.016-.012-.032-.079-.045Z" fill="#fff" stroke-width="0"/>
              <path d="M47.059,127.694l.109-.069c-.054.032-.076.038-.106.051.006.004.032-.001-.003.019Z" fill="#fff" stroke-width="0"/>
              <path d="M46.082,128.289c-.027.028-.015.015-.042.043l.009.002c.06-.057.097-.101.033-.045Z" fill="#fff" stroke-width="0"/>
              <path d="M46.908,127.687c-.022-.013-.086.039-.156.099l.013-.01c-.004.04.065-.031.143-.089Z" fill="#fff" stroke-width="0"/>
              <path d="M46.736,127.799c-.025.019-.043.033-.068.052-.002.015.029-.019.068-.052Z" fill="#fff" stroke-width="0"/>
              <path d="M47.767,127.302c-.042.011-.009.043-.036.042-.029.052.242-.155.036-.042Z" fill="#fff" stroke-width="0"/>
              <path d="M46.807,127.673h.041s.032-.043.032-.043c-.024.015-.051.026-.074.043Z" fill="#fff" stroke-width="0"/>
              <path d="M47.443,127.31l-.136.059s-.01.016-.028.03c.078-.047.173-.08.165-.089Z" fill="#fff" stroke-width="0"/>
              <path d="M47.278,127.399c-.04.025-.078.049-.098.067.018-.012.052-.035.098-.067Z" fill="#fff" stroke-width="0"/>
              <polygon points="46.973 127.555 47.013 127.536 47.102 127.482 46.973 127.555" fill="#fff" stroke-width="0"/>
              <path d="M48.933,126.785l.156-.038c.013-.019-.032-.022-.09-.006-.036.017-.094.032-.066.044Z" fill="#fff" stroke-width="0"/>
              <path d="M48.428,126.794c.045-.004.051.004.079.011l-.01-.052-.069.041Z" fill="#fff" stroke-width="0"/>
              <path d="M48.886,126.649c.012-.018.227-.09.021-.047-.014.015-.17.075-.021.047Z" fill="#fff" stroke-width="0"/>
              <polygon points="51.335 126.738 51.295 126.728 51.269 126.871 51.335 126.738" fill="#fff" stroke-width="0"/>
              <path d="M53.561,127.245c-.155-.142-.107.069-.237-.072-.065.012.106.115.042.121.131.025.173.08.194-.049Z" fill="#fff" stroke-width="0"/>
              <path d="M53.366,127.294c-.018-.002-.04-.005-.069-.009.037.009.056.01.069.009Z" fill="#fff" stroke-width="0"/>
              <polygon points="44.29 133.029 44.283 132.906 44.287 132.985 44.29 133.029" fill="#fff" stroke-width="0"/>
              <path d="M44.278,132.793v-.029s-.005-.074-.005-.074c.001.023,0,.02.005.103Z" fill="#fff" stroke-width="0"/>
              <path d="M56.398,134.525l-.032-.019c-.043.011-.054.041-.076.102l.108-.083Z" fill="#fff" stroke-width="0"/>
              <polygon points="55.545 136.187 55.565 136.162 55.424 136.148 55.545 136.187" fill="#fff" stroke-width="0"/>
              <path d="M54.688,137.498c.049-.043.081-.116.13-.159-.082.116-.247.071-.13.159Z" fill="#fff" stroke-width="0"/>
            </g>
          </g>
          <g clip-path="url(#clippath)">
            <g>
              <path d="M39.625,110.856c-12.202,5.443-17.681,19.746-12.238,31.948,5.443,12.202,19.746,17.681,31.948,12.238,12.202-5.443,17.681-19.746,12.238-31.948-5.443-12.202-19.746-17.681-31.948-12.238ZM52.997,140.835c-4.355,1.943-9.46-.013-11.403-4.368s.013-9.46,4.368-11.403c4.355-1.943,9.46.013,11.403,4.368,1.943,4.355-.013,9.46-4.368,11.403Z" fill="none" stroke-width="0"/>
              <g>
                <g>
                  <g id="_Radial_Repeat_" data-name="&amp;lt;Radial Repeat&amp;gt;">
                    <path d="M45.484,138.625c.343,3.604-5.245,5.447-7.942,4.799-.567-1.637,5.416-7.686,7.942-4.799Z" fill="#fff" stroke-width="0"/>
                  </g>
                  <g id="_Radial_Repeat_-2" data-name="&amp;lt;Radial Repeat&amp;gt;">
                    <path d="M43.078,135.346c-1.653,3.221-7.353,1.763-9.276-.235.404-1.685,8.704-3.557,9.276.235Z" fill="#fff" stroke-width="0"/>
                  </g>
                  <g id="_Radial_Repeat_-3" data-name="&amp;lt;Radial Repeat&amp;gt;">
                    <path d="M42.819,131.286c-3.128,1.823-7.144-2.476-7.688-5.196,1.248-1.202,9.249,1.693,7.688,5.196Z" fill="#fff" stroke-width="0"/>
                  </g>
                  <g id="_Radial_Repeat_-4" data-name="&amp;lt;Radial Repeat&amp;gt;">
                    <path d="M44.786,127.726c-3.617-.149-4.685-5.935-3.677-8.519,1.699-.34,6.88,6.409,3.677,8.519Z" fill="#fff" stroke-width="0"/>
                  </g>
                  <g id="_Radial_Repeat_-5" data-name="&amp;lt;Radial Repeat&amp;gt;">
                    <path d="M48.362,125.788c-2.967-2.075-.749-7.524,1.492-9.158,1.614.629,2.343,9.106-1.492,9.158Z" fill="#fff" stroke-width="0"/>
                  </g>
                  <g id="_Radial_Repeat_-6" data-name="&amp;lt;Radial Repeat&amp;gt;">
                    <path d="M52.42,126.081c-1.382-3.346,3.423-6.742,6.191-6.912,1.021,1.4-2.932,8.934-6.191,6.912Z" fill="#fff" stroke-width="0"/>
                  </g>
                  <g id="_Radial_Repeat_-7" data-name="&amp;lt;Radial Repeat&amp;gt;">
                    <path d="M55.678,128.513c.639-3.564,6.516-3.836,8.939-2.487.106,1.729-7.283,5.947-8.939,2.487Z" fill="#fff" stroke-width="0"/>
                  </g>
                  <g id="_Radial_Repeat_-8" data-name="&amp;lt;Radial Repeat&amp;gt;">
                    <path d="M57.115,132.319c2.458-2.658,7.556.279,8.871,2.721-.842,1.514-9.34,1.086-8.871-2.721Z" fill="#fff" stroke-width="0"/>
                  </g>
                  <g id="_Radial_Repeat_-9" data-name="&amp;lt;Radial Repeat&amp;gt;">
                    <path d="M56.273,136.299c3.503-.915,6.216,4.306,6.008,7.072-1.525.822-8.453-4.117-6.008-7.072Z" fill="#fff" stroke-width="0"/>
                  </g>
                  <g id="_Radial_Repeat_-10" data-name="&amp;lt;Radial Repeat&amp;gt;">
                    <path d="M49.455,140.105c2.3,2.796-1.302,7.449-3.899,8.42-1.386-1.04.191-9.401,3.899-8.42Z" fill="#fff" stroke-width="0"/>
                  </g>
                  <g id="_Radial_Repeat_-11" data-name="&amp;lt;Radial Repeat&amp;gt;">
                    <path d="M53.006,139.389c3.572.587,3.93,6.46,2.617,8.902-1.728.131-6.052-7.196-2.617-8.902Z" fill="#fff" stroke-width="0"/>
                  </g>
                </g>
                <path d="M48.357,108.729c-13.334.846-23.456,12.342-22.61,25.675.846,13.334,12.342,23.456,25.675,22.61,13.334-.846,23.456-12.342,22.61-25.675-.846-13.334-12.342-23.456-25.675-22.61ZM50.436,141.488c-4.759.302-8.862-3.311-9.164-8.07-.302-4.759,3.311-8.862,8.07-9.164,4.759-.302,8.862,3.311,9.164,8.07.302,4.759-3.311,8.862-8.07,9.164Z" fill="none" stroke-width="0"/>
                <g>
                  <g id="_Radial_Repeat_-12" data-name="&amp;lt;Radial Repeat&amp;gt;">
                    <g>
                      <path d="M45.639,138.358c.343,3.604-5.245,5.447-7.942,4.799-.567-1.637,5.416-7.686,7.942-4.799Z" fill="#9ed1ed" stroke-width="0"/>
                      <path d="M45.639,138.358c.184,3.721-4.859,5.841-8.049,5.248,0,0-.248-.053-.248-.053-.179-.396-.169-.893-.048-1.194.849-2.513,5.999-6.51,8.345-4.002h0ZM45.639,138.358c-2.262-2.564-7.225,2.334-7.506,4.648,0,0-.328-.298-.328-.298,2.923.502,7.928-.628,7.834-4.351h0Z" fill="#fff" stroke-width="0"/>
                    </g>
                  </g>
                  <g id="_Radial_Repeat_-13" data-name="&amp;lt;Radial Repeat&amp;gt;">
                    <g>
                      <path d="M43.233,135.079c-1.653,3.221-7.353,1.763-9.276-.235.404-1.685,8.704-3.557,9.276.235Z" fill="#9ed1ed" stroke-width="0"/>
                      <path d="M43.233,135.079c-1.85,3.234-7.24,2.303-9.609.085,0,0-.181-.178-.181-.178.062-.43.339-.843.603-1.031,2.069-1.659,8.561-2.252,9.186,1.125h0ZM43.233,135.079c-.55-3.385-7.32-1.928-8.827-.128,0,0-.116-.427-.116-.427,2.192,1.997,7.017,3.743,8.944.555h0Z" fill="#fff" stroke-width="0"/>
                    </g>
                  </g>
                  <g id="_Radial_Repeat_-14" data-name="&amp;lt;Radial Repeat&amp;gt;">
                    <g>
                      <path d="M42.974,131.019c-3.128,1.823-7.144-2.476-7.688-5.196,1.248-1.202,9.249,1.693,7.688,5.196Z" fill="#9ed1ed" stroke-width="0"/>
                      <path d="M42.974,131.019c-3.301,1.728-7.341-1.96-8.141-5.105,0,0-.056-.247-.056-.247.284-.329.739-.528,1.064-.544,2.637-.283,8.426,2.715,7.133,5.897h0ZM42.974,131.019c1.379-3.129-5.15-5.58-7.368-4.864,0,0,.132-.423.132-.423.771,2.864,3.896,6.934,7.235,5.286h0Z" fill="#fff" stroke-width="0"/>
                    </g>
                  </g>
                  <g id="_Radial_Repeat_-15" data-name="&amp;lt;Radial Repeat&amp;gt;">
                    <g>
                      <path d="M44.941,127.459c-3.617-.149-4.685-5.935-3.677-8.519,1.699-.34,6.88,6.409,3.677,8.519Z" fill="#9ed1ed" stroke-width="0"/>
                      <path d="M44.941,127.459c-3.712-.323-5.128-5.606-4.108-8.687,0,0,.086-.239.086-.239.416-.124.907-.046,1.189.115,2.374,1.182,5.636,6.827,2.832,8.811h0ZM44.941,127.459c2.848-1.893-1.333-7.475-3.587-8.067,0,0,.339-.285.339-.285-.894,2.828-.454,7.94,3.247,8.352h0Z" fill="#fff" stroke-width="0"/>
                    </g>
                  </g>
                  <g id="_Radial_Repeat_-16" data-name="&amp;lt;Radial Repeat&amp;gt;">
                    <g>
                      <path d="M48.517,125.521c-2.967-2.075-.749-7.524,1.492-9.158,1.614.629,2.343,9.106-1.492,9.158Z" fill="#9ed1ed" stroke-width="0"/>
                      <path d="M48.517,125.521c-3.009-2.327-1.25-7.71,1.421-9.686.418.12.79.45.94.737,1.363,2.275,1.07,8.788-2.361,8.949h0ZM48.517,125.521c3.429-.085,2.904-6.99,1.324-8.728,0,0,.439-.057.439-.057-2.276,1.901-4.66,6.445-1.764,8.785h0Z" fill="#fff" stroke-width="0"/>
                    </g>
                  </g>
                  <g id="_Radial_Repeat_-17" data-name="&amp;lt;Radial Repeat&amp;gt;">
                    <g>
                      <path d="M52.575,125.814c-1.382-3.346,3.423-6.742,6.191-6.912,1.021,1.4-2.932,8.934-6.191,6.912Z" fill="#9ed1ed" stroke-width="0"/>
                      <path d="M52.575,125.814c-1.264-3.505,2.938-7.007,6.163-7.372,0,0,.253-.022.253-.022.287.326.423.804.395,1.128-.077,2.651-3.833,7.98-6.81,6.267h0ZM52.575,125.814c2.913,1.791,6.227-4.345,5.818-6.64,0,0,.401.189.401.189-2.942.375-7.398,2.919-6.219,6.451h0Z" fill="#fff" stroke-width="0"/>
                    </g>
                  </g>
                  <g id="_Radial_Repeat_-18" data-name="&amp;lt;Radial Repeat&amp;gt;">
                    <g>
                      <path d="M55.833,128.246c.639-3.564,6.516-3.836,8.939-2.487.106,1.729-7.283,5.947-8.939,2.487Z" fill="#9ed1ed" stroke-width="0"/>
                      <path d="M55.833,128.246c.823-3.634,6.25-4.32,9.164-2.891,0,0,.225.118.225.118.067.429-.077.905-.275,1.163-1.493,2.192-7.528,4.657-9.114,1.61h0ZM55.833,128.246c1.489,3.078,7.587-.306,8.479-2.459,0,0,.236.375.236.375-2.68-1.269-7.805-1.527-8.715,2.084h0Z" fill="#fff" stroke-width="0"/>
                    </g>
                  </g>
                  <g id="_Radial_Repeat_-19" data-name="&amp;lt;Radial Repeat&amp;gt;">
                    <g>
                      <path d="M57.27,132.052c2.458-2.658,7.556.279,8.871,2.721-.842,1.514-9.34,1.086-8.871-2.721Z" fill="#9ed1ed" stroke-width="0"/>
                      <path d="M57.27,132.052c2.714-2.666,7.808-.192,9.404,2.722-.175.398-.553.721-.858.832-2.439,1.042-8.852-.132-8.546-3.553h0ZM57.27,132.052c-.381,3.409,6.532,3.825,8.468,2.497,0,0-.003.443-.003.443-1.574-2.513-5.753-5.492-8.465-2.94h0Z" fill="#fff" stroke-width="0"/>
                    </g>
                  </g>
                  <g id="_Radial_Repeat_-20" data-name="&amp;lt;Radial Repeat&amp;gt;">
                    <g>
                      <path d="M56.428,136.032c3.503-.915,6.216,4.306,6.008,7.072-1.525.822-8.453-4.117-6.008-7.072Z" fill="#9ed1ed" stroke-width="0"/>
                      <path d="M56.428,136.032c3.723-.783,6.682,4.045,6.456,7.359-.362.241-.854.31-1.171.238-2.616-.436-7.386-4.88-5.285-7.598h0ZM56.428,136.032c-2.17,2.643,3.46,6.759,5.789,6.665,0,0-.241.372-.241.372.028-2.966-1.888-7.726-5.548-7.037h0Z" fill="#fff" stroke-width="0"/>
                    </g>
                  </g>
                  <g id="_Radial_Repeat_-21" data-name="&amp;lt;Radial Repeat&amp;gt;">
                    <g>
                      <path d="M49.611,139.838c2.3,2.796-1.302,7.449-3.899,8.42-1.386-1.04.191-9.401,3.899-8.42Z" fill="#9ed1ed" stroke-width="0"/>
                      <path d="M49.611,139.838c2.273,3.051-.869,7.762-3.973,8.947-.37-.228-.64-.646-.707-.963-.701-2.558,1.332-8.752,4.68-7.984h0ZM49.611,139.838c-3.325-.84-4.676,5.952-3.622,8.051,0,0-.438-.063-.438-.063,2.704-1.219,6.221-4.955,4.061-7.988h0Z" fill="#fff" stroke-width="0"/>
                    </g>
                  </g>
                  <g id="_Radial_Repeat_-22" data-name="&amp;lt;Radial Repeat&amp;gt;">
                    <g>
                      <path d="M53.161,139.122c3.572.587,3.93,6.46,2.617,8.902-1.728.131-6.052-7.196-2.617-8.902Z" fill="#9ed1ed" stroke-width="0"/>
                      <path d="M53.161,139.122c3.645.77,4.41,6.187,3.024,9.121,0,0-.114.226-.114.226-.428.073-.906-.064-1.167-.258-2.213-1.461-4.766-7.46-1.743-9.089h0ZM53.161,139.122c-3.056,1.533.416,7.582,2.582,8.442,0,0-.371.241-.371.241,1.23-2.699,1.413-7.827-2.211-8.684h0Z" fill="#fff" stroke-width="0"/>
                    </g>
                  </g>
                </g>
              </g>
            </g>
          </g>
        </g>
        <g>
          <path d="M90.74,38.381l-.148-.107c.067.085.123.137.148.107Z" fill="#ed1c24" stroke-width="0"/>
          <path d="M86.874,43.035l.081.433c.213-.132.008-.253-.081-.433Z" fill="#ed1c24" stroke-width="0"/>
          <path d="M70.493,38.887c.009-.021.008-.04.021-.061-.048.025-.042.043-.021.061Z" fill="#ed1c24" stroke-width="0"/>
          <path d="M89.143,25.483c-.007-.002-.016.003-.023.002v.022s.023-.025.023-.025Z" fill="#ed1c24" stroke-width="0"/>
          <path d="M91.16,37.051c.125-.056.223-.164.051-.427.422.151.377-.068.422-.301l.561.196c-.085-.307-.381-.373-.595-.589.137-.251.601-.195.99-.173.189-.443-.782.139-.78-.421.289-.32.132-.641-.177-1.117.229-.23.356.09.534.02l-.448-.284c.017-.054.16-.022.232-.005-.096-.122-.279-.133-.443-.177.002-.215.002-.429-.01-.646.181-.156.289-.331-.03-.494.168-.092.364.039.594.009-.38-.388-.386-.44-.691-.604-.027-.155-.058-.311-.092-.466l.088-.094c-.031.022-.064.035-.096.051-.018-.079-.027-.158-.047-.237.062.004.126-.009.182-.07-.057.027-.122.04-.186.054-.009-.037-.023-.072-.033-.109.015-.002.041.004.053,0,.035-.014-.002-.031-.069-.052-.009-.031-.019-.063-.029-.094l.493-.164-.264.02.193-.464c.087-.048.172-.1.267-.129-.616-.063.53-1.047-.432-1.166.081-.156.23-.008.348-.126-.303.003-.43-.092-.446-.394l.077-.006c-.424-.651-.369-1.069-.766-1.911l-.217.255c-.086-.173-.032-.269-.026-.391-.525.152.321.429-.24.618.187-.3-.027-.561-.224-.816-.202-.253-.417-.477-.211-.816-.149-.15-.19.075-.273.149-.024.005-.057.015-.077.018-.018-.007-.038-.018-.061-.041l.085-.206-.233.144s-.002-.009-.004-.012c-.004-.024-.008-.048-.009-.076l-.012.013c-.003-.011-.009-.021-.011-.032.007,0,.016-.004.023-.003-.002-.049-.01-.103-.024-.156.019-.107.068-.212.127-.287.024.046.138.05.188.072-.042-.35-.621-.399-.638-.514l.147.282c-.339-.177-.68-.431-1.037-.652.012-.028.033-.062.041-.087-.093.189-.32-.289-.488-.292l.005.137c-.276-.129-.563-.216-.869-.209l-.017.167c-.07.001-.126-.004-.176-.011.116-.207.185-.401.122-.504-.089.078-.229.218-.392.383-.085-.083-.143-.188-.32-.269.202-.158.392-.293.548-.379-.057-.311.134-.339-.161-.469.038-.306.371-.293.467-.259l-.6-.536c-.253.561-.799.299-.988.797.332-.104.657-.161,1.002-.223-.17.333-.56.736-.925.96.058-.144-.202-.383.027-.495-.281.044-.397.075-.471.123.159-.278.358-.568.405-.681-.152.169-.606.191-.593.032l.325-.226c-.194-.337-.717.593-.848-.064-.095-.071-.112-.876-.238-.528,0,.251-.076.66-.181,1.106-.291-.069-.541.171-.727.121.131-.279.254-.548.238-.779-.047.164-.196.349-.252.407-.085-.166.163-.506-.114-.483-.167.612-.51-.156-.223.501-.275.136-.234-.192-.532-.196.007.102-.016.237-.058.383-.076-.049-.16-.085-.264-.083.055.004.058-.051.113-.047-.212-.176-.395.231-.66-.033-.11.444-.33.006-.319.559l.476-.173c-.103.063-.193.195-.289.322-.122-.053-.238-.105-.355-.152.023-.041.01-.039-.023-.009-.131-.051-.267-.092-.432-.098.067-.362.59-.096.833-.503-.173-.218-.542.454-.451-.156-.089.529-.325.318-.551.345-.039-.087-.065-.182-.032-.297-.062.118-.109.339-.247.368-.02-.032-.026-.051-.04-.077l-.006-.051s-.008.012-.012.017c-.151-.335.347-.064.111-.641.003.222-.123.374-.259.514l.023-.096c-.13.244-.334.137-.53.062.053-.172.312-.442-.02-.373-.007.115-.146.238-.112.333-.092-.02-.178-.013-.247.07.603-.188.237.339.547.511-.39.416-.549-.032-.844-.261l-.037-.181-.042.127c-.135-.076-.296-.101-.519.016.098-.087.488.053.362.251-.179-.022-.423-.058-.581-.178-.51.288.208.282.058.565-.297-.268-.218.153-.316.394-.024.002-.048.005-.072.005l-.11-.235c-.673.078.157.699-.452.725l-.009-.526-.206.249-.129-.365c-.152.414-.281.377-.608.471.177.149.268.489.1.663l-.07-.006.023.03c-.221-.072-.082-.301-.368-.05-.05-.221-.113-.498.205-.34-.046-.101-.042-.226-.085-.328-.305-.071-.477.262-.596.348.055-.023.122-.047.179-.028-.049.148-.08.305-.115.459,0,0,0,0-.001,0,0,0,0,.001,0,.002-.021.089-.049.175-.067.265-.149-.041-.158-.165-.163-.289-.069.105-.034.277-.147.409-.142-.237-.335-.445-.217-.71l-.245.602c-.108-.067-.443-.047-.455-.17-.347.125-.19.933-.619,1.097.026.052.036.119.01.213-.282.263-.806.327-.748.941l-.556-.049c-.11.368.711.042.538.642-.094.431-.445-.086-.639-.025.105.324.383.869-.153,1.033-.023-.155.09-.213.114-.337l-.384.146c-.229-.526.045-.711-.435-.621.413.243.278.512.183.799-.096.287-.189.576.244.768l-.261.111c.03-.049-.018-.078.012-.127-.575.204.536.504.267.908-.118.137-.285.213-.358.07l.116.423c-.047.1-.201.034-.152-.067-.028.192-.033.388-.05.58l-.026-.01c.129.112.318.333.397.434-.161.115-.085-.087-.208-.072.056.115.107.228.169.34-.261.09-.462-.202-.378-.413-.992.141.175.29-.436.863l-.087-.322c-.554.138-.388.408-.756.753.183-.092.911-.647,1.11-.272-.067.076-.105.184-.01.333-.196.042-.394.073-.596.077.294.099.205.231.049.392l-.079-.004c.01.021.024.03.036.047-.04.04-.081.081-.121.125-.203.209-.362.461.028.626-.019.006-.039.012-.058.017-.002.037.005.055.009.077-.087-.017-.176-.052-.289-.003.386.073.498.195.385.498l-.099-.013c.241.745-.025,1.151.058,2.111l.384-.222c.019.197-.093.287-.158.414.701-.056-.176-.512.587-.596-.371.272-.241.588-.129.894.117.305.25.587-.156.915.142.27.403-.325.541-.061l-.2.208.342-.115c.04.198-.185.457-.381.591-.004-.055-.133-.082-.18-.116-.127.396.51.561.472.691l-.028-.342c.645.546,1.079,1.547,2.037,1.689l.1-.193c.13.02.209.052.27.089-.009.118.045.16.138.158.06.154.05.346.404.508l-.048.025c.125-.044.239-.053.342-.04.035.05.075.101.123.152-.121.166.026.507-.256.593.54.012.551-.033.761-.213.284.15.586.208.803.069-.004.022-.009.043-.013.065-.146.167-.387.426-.455.48.118-.066.222-.144.337-.214-.039.043-.086.085-.158.119.03.122.073.21.124.274-.071.064-.139.13-.211.193.155-.089.246-.116.313-.116.041.026.081.05.125.059.016.023.031.048.046.078l.033-.071c.08.003.16-.005.236-.023-.083.068-.17.11-.261.112.063.123.142.294.458.261-.02-.05.029-.227.097-.393.097.035.147.158.116.498.071-.087.115-.16.149-.227.021.072.048.171.081.364-.041-.111.203-.474.397-.629.007.073.017.144.032.213-.103.207-.226.454-.288.479.127-.076.248-.165.372-.246.04.075.095.132.165.173-.006.024-.011.047-.016.071-.009.002-.017.01-.028.006.006.012.014.016.021.026-.024.115-.04.227-.035.309.014-.16.386.177.537.154l-.124-.248c.345.242.656-.333.974-.578.066.159.171.06.263.06-.057.119-.121.282-.163.445-.209.028-.492-.134-.759.177.086.325.64-.348.4.291-.255.098-.336-.024-.389.443.307.274.221-.389.476-.089.125-.13-.174-.237-.082-.345.126-.282.228-.35.324-.334-.023.154-.013.288.07.349.04-.055.097-.144.162-.246.119.054.254.057.438-.23l-.057.351c-.108.117-.212.224-.304.299.157.222-.009.275.304.32.065.233-.242.283-.34.275l.717.289c.04-.35.393-.38.565-.556.009-.006.018-.004.028-.012-.007,0-.01-.002-.017-.002.046-.051.08-.112.084-.199-.106.055-.213.098-.321.142-.162-.111-.034-.369-.055-.607.111-.106.23-.189.349-.237.094.104.152.298.226.491-.059.19-.128.373-.134.447.042-.072.159-.132.274-.164.04.06.085.113.141.152l-.104.101c.092.068.177.027.261-.039.07.014.147.015.241-.008-.041.024-.105-.006-.167-.052.073-.066.147-.13.224-.153.067.062.135.124.181.204.054-.014.087-.031.121-.047.122.125.312.538.329.294-.072-.185-.117-.507-.145-.861.078-.124.134-.448.261-.567l.063.444c.549.151.242-.53.4-.696.002,0,.004,0,.006,0,.067.393-.226.907-.075,1.21,0-.128.092-.296.13-.35.127.098-.019.4.239.317-.002-.43.425-.099.179-.324.032-.049.065-.102.094-.134.1.022.186.103.374.054-.022-.046-.033-.107-.038-.175.067.007.143.02.236.03-.125-.226-.154-.591-.034-.78.062-.012.124-.024.186-.037.136.177-.006.344.311.185.006.292.009.661-.283.319.025.145-.007.297.015.441.298.228.552-.1.693-.15-.062.002-.137.001-.192-.048.117-.229.216-.471.308-.715.031-.001.061,0,.093-.003.075.107.067.231.051.354.091-.088.096-.293.223-.402.007-.002.012-.002.019-.003.103.347.258.682.08.942l.384-.604c.007.009.022.018.031.027-.018.051-.004.12.106.231-.014-.048-.006-.095.001-.142.142.096.323.197.315.305.406.023.392-1.005.894-.981-.015-.059-.01-.126.015-.199l.061.114.032-.189c.365-.11.886-.007.939-.67l.627.329c.177-.321-.613-.392-.544-.826.019-.005.039-.013.057-.016-.001-.049,0-.101,0-.152.186-.376.489.33.721.359-.055-.407-.281-1.129.382-1.045-.002.178-.146.186-.198.308l.481.028c.168.68-.197.753.39.886-.436-.464-.229-.695-.053-.955.176-.26.349-.523-.133-.929l.337.007c-.046.038.006.091-.04.128.58.042-.081-.463-.191-.821.006-.003.011-.006.02-.007-.001-.007-.008-.015-.01-.023.059-.084.114-.171.171-.258.144-.033.288-.005.334.135l-.051-.486c.08-.08.255.056.173.137.077-.183.134-.376.199-.561l.031.022c-.042-.053-.089-.121-.136-.191.076-.15.138-.306.206-.46.086.125.106.275.023.37,1.275.287-.153-.365.77-.673l.023.357c.737.095.6-.246,1.162-.445-.259.023-1.33.275-1.481-.181ZM76.268,42.583s-.006.01-.01.014c-.001-.004.007-.01.01-.014ZM82.969,23.083c.094.213-.193.422-.394.42.035-.167.102-.336.178-.504.149.036.303.02.216.084ZM79.886,22.557c.002.033-.005.068-.004.101-.072.034-.14.101-.2.247l-.01-.082c.077-.087.152-.188.214-.267ZM70.482,32.359c.372.141.182.19.057.326-.062-.089-.26-.286-.057-.326ZM74.201,41.48c.006.001.011.005.017.007-.002,0-.002.004-.004.005l-.013-.011ZM76.469,42.248c-.054.098-.109.194-.166.283.009-.116.077-.209.166-.283ZM76.392,42.674c.04-.063.079-.105.109-.102-.003.065-.004.116-.005.164-.034-.025-.07-.046-.104-.062ZM79.984,44.713c-.159.063-.32.122-.486.183.022-.137.092-.293.186-.446.102.062.2.179.3.263ZM80.944,44.635c.005.005.019.005.021.012l-.011.01c-.004-.007-.006-.015-.01-.022ZM82.879,44.159c.008-.006.013-.003.021-.008l.002.029c-.009-.008-.013-.012-.023-.021ZM91.134,37.401c-.433-.296-.18-.263.015-.345.055.113.253.391-.015.345Z" fill="#ed1c24" stroke-width="0"/>
          <path d="M86.857,42.955c-.006,0-.009.003-.014.004.008.027.019.053.031.077l-.016-.08Z" fill="#ed1c24" stroke-width="0"/>
          <path d="M82.97,21.792c.065.079.09.168.1.256.03-.106.015-.203-.1-.256Z" fill="#ed1c24" stroke-width="0"/>
          <path d="M87.506,23.096c-.19-.403-.41.426-.533.003-.196.138.098.345-.086.454.317-.071.34.107.618-.456Z" fill="#ed1c24" stroke-width="0"/>
          <path d="M92.151,36.905l.382-.084-.132-.065c-.161-.011-.19.042-.25.149Z" fill="#ed1c24" stroke-width="0"/>
          <polygon points="90.554 39.754 90.598 39.711 90.089 39.49 90.554 39.754" fill="#ed1c24" stroke-width="0"/>
          <path d="M89.102,42.437c.114-.061.136-.253.239-.324-.125.269-.718-.164-.239.324Z" fill="#ed1c24" stroke-width="0"/>
          <path d="M70.59,31.331l.128.05c-.065-.056-.115-.085-.128-.05Z" fill="#ed1c24" stroke-width="0"/>
          <path d="M72.961,25.931l-.13-.319c-.16.181.03.206.13.319Z" fill="#ed1c24" stroke-width="0"/>
          <path d="M89.412,25.115c0,.019.008.035.005.055.03-.028.019-.042-.005-.055Z" fill="#ed1c24" stroke-width="0"/>
          <path d="M75.707,43.034c.006,0,.013-.005.019-.005l-.008-.018-.01.023Z" fill="#ed1c24" stroke-width="0"/>
          <path d="M72.986,25.99l.012-.008c-.01-.019-.023-.036-.037-.051l.025.059Z" fill="#ed1c24" stroke-width="0"/>
          <path d="M82.593,44.762c-.083-.041-.131-.098-.164-.159,0,.083.041.149.164.159Z" fill="#ed1c24" stroke-width="0"/>
          <path d="M69.843,33.122l-.256.187.109.022c.118-.036.127-.093.147-.209Z" fill="#ed1c24" stroke-width="0"/>
          <polygon points="70.498 30.032 70.472 30.084 70.892 30.109 70.498 30.032" fill="#ed1c24" stroke-width="0"/>
          <path d="M71.22,27.215c-.083.09-.072.259-.142.356.056-.271.597-.115.142-.356Z" fill="#ed1c24" stroke-width="0"/>
        </g>
      </g>
      <g>
        <path d="M53.771,134.512c.03.033.054.053.063.041l-.063-.041Z" fill="#9ed1ed" stroke-width="0"/>
        <path d="M52.424,136.434l.044.175c.08-.055-.004-.102-.044-.175Z" fill="#9ed1ed" stroke-width="0"/>
        <path d="M49.894,128.935h.003c-.01-.032-.008-.026-.003,0Z" fill="#9ed1ed" stroke-width="0"/>
        <path d="M49.23,136.638c-.002-.006-.004-.009-.007-.017-.052.062-.032.054.007.017Z" fill="#9ed1ed" stroke-width="0"/>
        <polygon points="52.977 129.586 52.968 129.588 52.968 129.597 52.977 129.586" fill="#9ed1ed" stroke-width="0"/>
        <path d="M53.18,129.625c-.203.083-.208.04-.212-.029l-.319.361c.174-.114.351-.225.531-.332Z" fill="#9ed1ed" stroke-width="0"/>
        <path d="M53.969,134.028c.05-.023.087-.067.009-.167.177.054.153-.031.165-.122l.235.07c-.042-.119-.165-.141-.258-.222.05-.099.242-.084.402-.08.068-.175-.318.065-.33-.153.112-.128.039-.251-.098-.43.09-.093.148.029.22,0l-.19-.103c.006-.021.065-.011.095-.006-.072-.078-.244-.02-.305-.133-.263-.027.398-.232.081-.368.068-.039.151.008.245-.008-.211-.184-.152-.163-.444-.283l.139-.153c-.167.125-.401.034-.59-.022-.014.008-.024.014-.037.021-.002-.01-.001-.022-.004-.032.014.004.026.007.04.011l.047-.027c-.033-.001-.062-.002-.093-.003-.005-.022-.015-.042-.02-.063.073-.019.156-.026.247-.02-.043.028-.089.057-.134.086.151.007.319.016.459-.019-.029-.006-.057-.022-.074-.043.041.003.078.003.101-.007.024-.011-.03-.019-.099-.033l.257-.096-.108.014.107-.271c-.304-.096-.743-.086-.924-.247.208-.028.306-.117.525-.208-.205.16.169.146.17.296,0-.075.112-.099.156-.094l-.299-.151c.182-.069.117-.105.161-.196-.33.198-.31-.058-.457-.089.111-.066.238-.105.264.019.195-.255-.469.052-.319-.167.017.023.008.045.071.023-.133,0-.138-.183-.024-.21l.017.023c-.052-.197-.344-.489-.605-.298.031-.029.318-.233.376-.264-.25.098-.481.223-.715.344-.025-.027-.044-.058-.07-.084.207-.219.448-.483.604-.474-.004-.061-.008-.143-.152-.141-.002.051-.229.339-.276.33.134-.299.061-.17.131-.464-.005.077-.338.366-.377.312.051-.042.277-.332.328-.348-.141.065-.278.135-.414.214.083-.035.235-.279.275-.402-.036.079-.129-.107-.196-.103l.006.129c-.136-.185-.509.382-.647.27.062-.066.334-.438.269-.54-.086.085-.283.322-.474.538-.057-.03-.112-.066-.171-.093.199-.226.424-.448.579-.547-.025-.125.05-.141-.067-.186.012-.125.143-.129.182-.118l-.241-.201c-.094.235-.311.144-.38.352.128-.051.255-.084.39-.119-.108.237-.46.579-.603.486-.008-.112.195-.416.224-.497-.058.073-.234.094-.231.029l.125-.101c-.08-.133-.273.262-.331-.004-.038-.027-.054-.356-.099-.21.006.184-.074.577-.157.906-.042-.011-.081-.029-.124-.039l.027-.1-.026-.003-.02.097c-.04-.009-.083-.01-.124-.017.02-.219.187-.464.169-.644-.016.069-.071.148-.092.173-.035-.066.056-.212-.051-.196-.056.255-.199-.052-.079.211-.104.062-.093-.073-.208-.069.012.116-.061.334-.133.486-.034-.002-.067-.009-.102-.01-.002-.01-.004-.024-.005-.031-.174-.038-.274-.136-.446-.134-.02-.063-.113-.133-.088-.247-.021.049-.035.141-.087.155-.135-.208.118-.053.005-.31.009.152-.12.229-.18.334.063.227.177.018.247-.088.011.117.004.237-.011.352-.176.021-.347.053-.514.098-.14-.067-.39.104-.608.045-.003.058-.006.118.011.173-.154.074-.307.149-.448.243h0s0,0,0,0c-.049.033-.091.073-.138.107-.016-.027-.026-.052-.049-.08l-.019.136c-.028-.033-.041-.109-.088-.124.035.052.053.105.057.15-.03.023-.059.048-.087.072-.012-.003-.019.002-.034-.004,0,.006.01.016.012.023-.032.027-.066.051-.097.08-.008-.003-.01-.014-.021-.012.006.021-.008.022-.008.037-.699.658-1.141,1.586-1.141,2.622,0,.07.017.135.021.204-.155.046-.317.099-.486.11.321.069-.439.361.046.477-.067.055-.121-.012-.201.026.16.019.207.064.165.184l-.041-.003c.109.283.004.447.048.82l.154-.097c.009.076-.035.115-.061.166.285-.041-.076-.195.234-.249-.298.245.215.45-.101.716.06.102.161-.139.219-.04l-.079.088.137-.055c.018.076-.072.186-.15.244-.002-.022-.054-.028-.073-.041-.048.16.21.207.196.26l-.014-.135c.265.196.444.582.827.61l.039-.08c.27.021.083.185.326.278l-.019.011c.088-.038.167-.042.218,0-.108.051-.001.227-.131.278.304-.016.178-.045.468-.248l-.034.141c.107-.091.141-.149.26-.133-.139.068-.022.229-.191.327.12.408.471-.147.429.326.236-.332-.139-.283-.049-.339-.003-.138.189-.243.244-.181.065.036-.023.518.193.567-.02-.007-.029.021-.049.014.058.115.181-.088.247.084.097-.225.126.033.188-.263l-.198.04c.127-.06.269-.397.409-.202-.019.059-.078.131-.12.17.04.095.103-.042.146.052-.047.305-.235.034-.391.244.04.136.26-.182.153.134.138-.398.214.084.386-.23l-.02.181c.026-.027.078-.111.119-.104l-.089.231c.128-.195.236.19.36.072-.251.015-.059-.214-.161-.347.28-.251.178.472.529.363-.046.031-.186-.098-.12-.185.067.036.16.093.213.181.225-.072-.059-.18.022-.305.107.208.095-.106.172-.189l.034.181c.272.068-.015-.388.226-.299l-.03.272.098-.093.029.209c.088-.186.136-.149.276-.137-.068-.114-.088-.324.007-.365.106.078.021.179.157.101.01.119.021.27-.102.134.014.059.005.122.017.18.122.09.213-.047.267-.069-.024.002-.054.002-.076-.018.044-.105.08-.215.112-.326.061.048.059.11.055.173.035-.039.028-.129.082-.173.05.142.123.279.059.388l.134-.25c.043.052.19.105.19.167.161.006.126-.411.325-.406-.009-.029-.011-.062.005-.101.139-.065.381-.001.383-.287l.26.128c.067-.144-.333-.155-.228-.389.06-.173.207.122.303.132-.034-.163-.146-.449.121-.42.005.071-.053.075-.07.124l.193.008c.088.27-.056.302.183.351-.371-.348.281-.424-.131-.749h.136c-.018.016.005.036-.012.051.299.015-.243-.306-.084-.421.068-.034.157-.037.186.034l-.035-.191c.03-.032.105.02.074.052.026-.073.044-.149.065-.222l.013.008c-.059-.065-.142-.183-.177-.235.092-.019.039.047.104.062l-.065-.159c.143.006.226.151.169.221.527.1-.073-.142.296-.271l.019.139c.303.03.239-.103.463-.188-.106.012-.536.123-.61-.054ZM53.639,131.554c.065.006.044.049-.014.102-.022-.024-.023-.056.014-.102ZM53.968,134.165c-.184-.111-.08-.101-.003-.135.025.044.114.15.003.135Z" fill="#9ed1ed" stroke-width="0"/>
        <polygon points="52.415 136.402 52.41 136.404 52.424 136.434 52.415 136.402" fill="#9ed1ed" stroke-width="0"/>
        <path d="M50.564,128.372c.01-.044.003-.084-.042-.103.026.031.037.067.042.103Z" fill="#9ed1ed" stroke-width="0"/>
        <polygon points="47.955 129.443 47.849 129.444 47.893 129.464 47.955 129.443" fill="#9ed1ed" stroke-width="0"/>
        <path d="M48.719,128.657l-.026.102c.039.031.052.072.084.129l-.058-.23Z" fill="#9ed1ed" stroke-width="0"/>
        <path d="M48.976,128.454c0,.065-.097.14.013.174-.004-.066.127-.211-.013-.174Z" fill="#9ed1ed" stroke-width="0"/>
        <path d="M52.309,128.678c-.078-.158-.159.184-.21.016-.076.061.041.137-.03.186.124-.038.135.033.241-.203Z" fill="#9ed1ed" stroke-width="0"/>
        <path d="M54.37,133.96l.154-.038-.056-.024c-.066-.002-.077.019-.099.061Z" fill="#9ed1ed" stroke-width="0"/>
        <polygon points="53.798 135.095 53.814 135.078 53.602 134.995 53.798 135.095" fill="#9ed1ed" stroke-width="0"/>
        <path d="M53.293,136.176c.043-.026.047-.103.086-.132-.043.109-.292-.06-.086.132Z" fill="#9ed1ed" stroke-width="0"/>
      </g>
    </g>
    <g id="Text">
      <g>
        <path d="M236.525,105.017v8.175h-2.769v-18.886h7.555c3.925,0,6.021,2.136,6.021,5.078,0,2.469-1.404,3.935-3.13,4.447,1.427.4,2.781,1.518,2.781,4.815v.833c0,1.295-.047,2.905.257,3.713h-2.707c-.341-.816-.333-2.277-.333-4.093v-.378c0-2.571-.715-3.703-4.037-3.703h-3.639ZM236.525,102.693h3.978c2.764,0,3.955-1.041,3.955-3.061,0-1.918-1.251-3.003-3.708-3.003h-4.225v6.064Z" fill="#fff" stroke-width="0"/>
        <path d="M266.952,104.493h-9.324v6.326h10.248l-.354,2.373h-12.636v-18.886h12.505v2.373h-9.764v5.441h9.324v2.373Z" fill="#fff" stroke-width="0"/>
        <path d="M277.434,94.306v18.886h-2.803v-18.886h2.803Z" fill="#fff" stroke-width="0"/>
        <path d="M285.89,113.191v-18.886h3.646c2.642,4.383,8.244,13.445,9.267,15.5h.04c-.188-2.338-.173-5.374-.173-8.461v-7.038h2.62v18.886h-3.434c-2.407-4.022-8.304-13.877-9.44-16.008h-.04c.137,2.057.146,5.386.146,8.79v7.218h-2.633Z" fill="#fff" stroke-width="0"/>
        <path d="M312.419,107.773l-1.926,5.418h-2.78l6.666-18.886h3.471l6.953,18.886h-2.976l-1.992-5.418h-7.416ZM319.148,105.4c-1.713-4.778-2.677-7.398-3.095-8.887h-.027c-.462,1.651-1.537,4.8-2.917,8.887h6.039Z" fill="#fff" stroke-width="0"/>
        <path d="M345.977,107.748c-.823,3.266-3.264,5.686-7.634,5.686-5.712,0-8.558-4.276-8.558-9.621,0-5.139,2.865-9.779,8.672-9.779,4.562,0,6.982,2.618,7.521,5.774h-2.803c-.623-1.943-1.918-3.476-4.825-3.476-4.015,0-5.642,3.644-5.642,7.392,0,3.609,1.525,7.411,5.75,7.411,2.865,0,4.06-1.69,4.702-3.387h2.815Z" fill="#fff" stroke-width="0"/>
        <path d="M353.007,94.306h2.803v7.787h9.419v-7.787h2.803v18.886h-2.803v-8.726h-9.419v8.726h-2.803v-18.886Z" fill="#fff" stroke-width="0"/>
      </g>
      <g>
        <path d="M234.266,18.164h17.574c10.1,0,16.303,6.046,16.303,16.423,0,9.054-4.36,12.971-8.295,14.363,5.121,1.795,10.504,6.518,10.504,16.94,0,12.149-7.327,19.777-19.031,19.777h-17.055V18.164ZM249.308,46.303c8.475,0,11.576-3.774,11.576-11.038,0-6.756-3.56-10.938-10.636-10.938h-8.683v21.976h7.742ZM241.566,79.573h9.069c7.94,0,12.247-4.801,12.247-13.661,0-9.027-4.603-13.516-13.667-13.516h-7.649v27.177Z" fill="#fff" stroke-width="0"/>
        <path d="M288.469,67.933c.531,6.937,3.867,12.477,11.271,12.477,7.077,0,10.634-3.87,10.634-11.644,0-7.093-2.876-10.88-12.059-15.305-10.571-5.052-15.236-9.729-15.236-19.51,0-9.269,5.937-16.688,16.946-16.688,13.036,0,16.556,9.344,16.755,17.261h-7.301c-.333-3.27-1.327-11.069-9.717-11.069-6.491,0-9.249,4.452-9.249,9.852,0,6.462,2.887,9.511,11.345,13.539,11.804,5.629,16.12,11.252,16.12,21.305,0,10.663-6.017,18.452-18.443,18.452-13.526,0-17.976-8.853-18.501-18.669h7.435Z" fill="#fff" stroke-width="0"/>
        <path d="M368.083,85.666h-5.83c-.233-1.895-.433-3.928-.468-7.292-2.217,4.696-5.582,8.292-13.51,8.292-14.619,0-18.446-15.071-18.446-34.671,0-23.24,7.135-34.795,20.846-34.795,16.181,0,17.238,14.36,17.438,18.399h-7.399c-.199-2.397-.731-11.926-10.243-11.926s-12.901,11.228-12.901,28.193,2.524,28.361,12.025,28.361c9.103,0,11.184-7.611,11.184-21.754v-3.298h-11.722v-6.509h19.027v37Z" fill="#fff" stroke-width="0"/>
      </g>
      <g id="Logo_Plusport_color_" data-name="Logo, Plusport (color)">
        <g clip-path="url(#clippath-1)">
          <path d="M318.851,145.666c-.113,1.353-1.241,2.03-2.03,3.045v-.113c-.451.677-1.353.902-1.917,1.353-.564.226-1.241.451-1.804.677s-1.241.338-1.804.451c.113-1.128.451-2.143.902-3.045.451-1.128,1.015-2.256,1.804-2.932,1.241-.451,2.256-.113,3.609-.113.564,0,.902.226,1.241.677ZM320.656,146.568c-.789-1.466-1.579-3.158-3.045-3.609-.677,0-1.353,0-1.917-.338-1.128-.451-2.368.338-3.496.564-.564.338-1.241.338-1.804.789v.113c-.451-.113-.677.338-1.015.564-1.466.677-2.82,1.804-3.835,3.045h.226c1.015-.789,2.368-.789,3.496-1.353.338-.113.789-.226,1.015,0-.226.789-.564,1.466-.677,2.256-.113.226-.226.789,0,.902,0,0,0,.113-.113.113,0,1.579.113,3.835,1.466,4.85.789.451,1.804,0,2.707,0,.451-.451,1.128-.338,1.692-.564.226-.451.677-.451,1.015-.677.564-.564,1.353-.677,1.804-1.353.564-.113.451-.789.902-.902.789-1.353,1.692-2.82,1.579-4.398Z" fill="#fff" stroke-width="0"/>
        </g>
        <g clip-path="url(#clippath-2)">
          <path d="M364.753,139.801c-1.466.902-3.045,1.353-4.624,1.353,1.692-.226,3.158-1.015,4.511-1.917l-.113-.226c.113,0,.113.113.113.113l.789-.451v-.113c.564-.451,1.015-.789,1.466-1.353.564-.677,1.015-1.241,1.466-2.03,0,0,0-.226.113-.226.564-1.128.902-2.368,1.015-3.722.451,3.158-1.466,6.654-4.737,8.571Z" fill="#df1f26" stroke-width="0"/>
        </g>
        <g clip-path="url(#clippath-3)">
          <path d="M366.67,126.832c.451.338.789.677,1.241,1.128.677.789,1.015,1.804,1.128,3.158,0,.113-.113.226,0,.226-.226.451-.113.677-.226,1.128v.113h-.113v.113h.113v.113h-.113l-.226.564c0,.113.226.226,0,.226,0,.113-.226.451-.113.451-.226.113-.226.451-.338.677h-.113v.113c0,.113-.113.226-.113.338h-.113v.226c-.226,0-.113.226-.226.338-.113.226-.451.338-.338.564,0,0,0-.113-.113-.113v.113s0,.113-.113.113c.113,0,.113.113.113.113h-.226.113c0,.113-.113,0-.113.113-.113,0-.113.113-.113.226-.338,0-.113.564-.451.338.113.226-.226.113-.113.338h-.226.113c0,.113-.113.113-.113.113-.113.113-.226.113-.226.226-.113,0-.113.226-.338.226v.113c-.226.113-.451.338-.677.564,0,.113-.451,0-.226.226h-.113c-.113.113-.338.113-.338.338l-.113-.113s0,.113-.113.113c-.113.113-.226.113-.226.226,0,0-.113.113-.226.226v-.113h-.226c-.113.226-.338.226-.451.338-.113.113-.226,0-.451.113h.113c-.226.113-.226.226-.451.226l-.226.226c0-.113-.113-.113-.113-.113v.113h-.113c-.113.226-.338-.113-.451.113h-.226c-.113.226-.338-.113-.451.113-.113-.113-.226.113-.338,0v.226c-.113-.226-.113,0-.226,0v-.113l-.113-.113c-.113.338-.113,0-.338.113v.113q-.113,0-.113-.113l-.113.113v-.113c-1.015,0-2.143-.226-3.045-.677-1.579-1.015-2.932-2.932-2.368-6.09.451-2.82,2.256-5.188,4.737-6.541,2.143-1.128,4.624-1.692,7.218-.902,1.692.451,2.481,1.805,2.82,3.383,0-1.241-.451-1.917-1.128-2.707-.226-.226-.451-.338-.564-.564Z" fill="#df1f26" stroke-width="0"/>
          <path d="M353.588,138.448c-.113-.226-.226-.451-.451-.677-2.03-3.609-.226-8.459,3.947-10.827,1.804-1.015,3.609-1.466,5.301-1.353h-.338c-1.579.113-2.82.564-4.286,1.353-1.241.677-2.368,1.805-3.158,2.932v-.113c0,.113-.113.226-.113.226v-.113c-.226.451-.451.789-.677,1.241q-.113.113-.113.226,0-.113.113-.226c0,.226-.113.451-.338.677,0,0,.113-.226.113-.338l-.226.677v-.113l.113.113c-.564,1.353-.677,2.594-.564,3.834,0,.902.338,1.692.677,2.481Z" fill="#df1f26" stroke-width="0"/>
        </g>
        <polygon points="357.084 132.02 359.791 132.02 360.242 129.426 362.948 129.426 362.497 132.02 365.204 132.02 364.64 134.839 362.046 134.839 361.595 137.546 358.776 137.546 359.227 134.839 356.633 134.839 357.084 132.02" fill="#fff" stroke-width="0"/>
        <g clip-path="url(#clippath-4)">
          <path d="M327.761,144.425c2.256-2.256,4.962-4.173,8.571-4.624-4.737,2.594-8.007,7.105-9.248,11.729-.113,1.015-.564,2.03-.226,3.045-.226.113-.564.226-.789.113-.677-.338-.789-.902-1.241-1.241-.113-.451-.902-.902-.677-1.466.338-1.466,1.015-2.932,1.466-4.398.677-2.481.564-5.188,1.917-7.443.564,1.353-.113,2.82.226,4.286Z" fill="#fff" stroke-width="0"/>
          <path d="M301.483,144.651c-.113,4.173-3.947,6.654-7.105,8.233.564-2.256,1.128-4.398,1.804-6.541,1.804-.451,3.158-1.805,5.075-1.805l.226.113ZM303.513,144.989c.113-1.466-1.466-1.804-2.03-2.594-1.015-1.015-2.481-.677-3.722-.226-.338.451-.789.451-1.241.677-.789.789-.564-.677-1.015-.902-1.466,3.045-2.594,6.203-3.496,9.474l-1.015,2.707c0,.226.113.564-.113.677-.338,1.692-1.015,3.271-1.128,4.962-.451.564,0,1.692-.451,2.143.226.789-.451,1.241-.113,1.917h-.113c-.113.789,0,1.579-.113,2.481-.113.338.113.789-.113,1.241.113.789,0,1.579.226,2.143l.113-.113c.451-.451.564-1.353.789-2.03.451-.113,0-.677.451-.902,1.128-3.383,1.917-7.331,3.158-11.052.113-.564.226-1.241.564-1.804,3.271.226,5.865-1.466,8.007-3.609.677-.564.789-1.579,1.128-2.368-.226-.902.451-1.804.226-2.82Z" fill="#fff" stroke-width="0"/>
          <path d="M293.138,129.764c-.226,1.579-1.804,2.143-2.143,3.609-1.692,1.917-3.947,3.835-4.286,6.541-.451,6.428.564,13.759-2.256,19.511-2.594,4.286-5.188,9.925-10.15,10.827-.677-.451-1.353-.451-2.03-.564-.451.113-1.015.338-1.466.226.113-.226.338-.113.451-.451,0,0-.226-.226-.113-.113.564-.338-.338-.338.113-.564,6.767-4.173,12.857-12.067,13.534-20.864.789-5.526-.564-11.955,3.722-15.789,1.353-1.128,2.82-2.481,4.624-2.368Z" fill="#fff" stroke-width="0"/>
          <path d="M278.363,142.621c-2.256,5.188-4.173,10.94-3.496,17.03.113.451.451.789.902,1.015.338.113.677.113,1.015.113-.564.113-1.128.564-1.692.113-2.932-1.692-2.707-5.639-2.368-8.684.226-1.466.789-2.932,1.015-4.398-2.481,2.481-4.624,4.962-7.669,6.541-.902.338-2.143-.113-2.707-.902-.902-1.579-.902-3.835-.338-5.526,1.015-2.707,2.594-5.188,4.286-7.443.338-.113.564.226.564.564-.226,2.481-1.692,4.511-2.481,6.654-.564,1.579-.902,3.271-.902,5.075,1.015.226,1.579-.789,2.481-1.015,3.271-3.045,5.977-5.413,9.135-8.459l2.368-3.271c.902.677.226,1.804-.113,2.594Z" fill="#fff" stroke-width="0"/>
          <path d="M260.882,132.922c.451.451.226,1.015,0,1.466-2.256,5.865-5.413,11.391-5.752,17.706.113.338-.113.789.226.902,1.692-.451,2.932-1.466,4.511-2.143-1.466,1.241-1.804,4.173-4.85,3.722-1.466-.789-2.82-1.917-2.594-3.496,0-6.767,4.511-12.406,7.556-18.609.338,0,.451.338.902.451Z" fill="#fff" stroke-width="0"/>
        </g>
        <g clip-path="url(#clippath-5)">
          <path d="M342.986,142.508l.226.226,6.992.226c-.338,1.128-1.128,1.805-2.03,2.481-2.256.113-4.173.902-6.428.902-1.917,2.932-2.707,6.654-3.609,10.15,0,2.256-.902,4.85,1.128,6.203,3.722.338,6.428-2.03,9.474-3.496-2.594,2.481-5.413,4.398-8.684,5.075-1.466-.113-2.368-1.579-3.271-2.932-1.917-4.398-.789-10.376,1.128-14.436-1.241,0-1.917-.902-2.707-1.804-.113-.677-.226-1.804.564-1.804l4.06-.338c2.03-3.834,4.624-9.248,6.992-12.631-.564,3.947-3.045,8.346-3.835,12.18Z" fill="#fff" stroke-width="0"/>
        </g>
        <g clip-path="url(#clippath-6)">
          <path d="M252.086,133.26c1.241,2.82-.338,5.865-1.917,8.233-.677.113-.902,1.015-1.466,1.353-1.466,1.692-3.496,3.271-5.526,4.398-1.015,0-2.03.564-2.594,1.466-1.466,4.962-2.256,7.331-4.173,11.955,0,0-.902,2.03-1.015,3.158-.451,1.128-1.015,2.368-.902,3.834.113-.338-.338-.677-.451-1.015-.789-2.594-.564-5.301.226-7.782,2.481-9.022,4.173-15.338,9.022-23.684.338-.226.338-.564.789-.564.113,2.368-.902,4.624-1.466,6.88-.451,1.579-.789,3.271-1.241,4.85,4.06-3.496,7.218-7.218,8.91-11.842.338-.789-.451-1.241-.902-1.692-2.368-1.353-5.752-2.03-8.346-.677-.451.226-.677.902-1.353.677-.451-.338-1.128-.902-.902-1.466l-.226-.226v-.113l-.226-.226c.226-.338.902-.338,1.353-.564,2.932-1.353,7.218-1.241,9.925.451,1.015.789,1.804,1.692,2.481,2.594Z" fill="#fff" stroke-width="0"/>
        </g>
      </g>
    </g>
  </g>
</svg>